G04 EAGLE Gerber RS-274X export*
G75*
%MOMM*%
%FSLAX34Y34*%
%LPD*%
%INSilkscreen Bottom*%
%IPPOS*%
%AMOC8*
5,1,8,0,0,1.08239X$1,22.5*%
G01*
%ADD10C,0.101600*%
%ADD11R,0.120000X0.020000*%
%ADD12R,0.340000X0.020000*%
%ADD13R,0.320000X0.020000*%
%ADD14R,0.140000X0.020000*%
%ADD15R,0.280000X0.020000*%
%ADD16R,0.360000X0.020000*%
%ADD17R,0.420000X0.020000*%
%ADD18R,0.380000X0.020000*%
%ADD19R,0.480000X0.020000*%
%ADD20R,0.540000X0.020000*%
%ADD21R,0.560000X0.020000*%
%ADD22R,0.400000X0.020000*%
%ADD23R,0.640000X0.020000*%
%ADD24R,0.620000X0.020000*%
%ADD25R,0.700000X0.020000*%
%ADD26R,0.660000X0.020000*%
%ADD27R,0.740000X0.020000*%
%ADD28R,1.080000X0.020000*%
%ADD29R,0.800000X0.020000*%
%ADD30R,1.100000X0.020000*%
%ADD31R,0.440000X0.020000*%
%ADD32R,0.840000X0.020000*%
%ADD33R,1.120000X0.020000*%
%ADD34R,0.460000X0.020000*%
%ADD35R,0.860000X0.020000*%
%ADD36R,0.900000X0.020000*%
%ADD37R,1.140000X0.020000*%
%ADD38R,0.920000X0.020000*%
%ADD39R,1.160000X0.020000*%
%ADD40R,0.960000X0.020000*%
%ADD41R,0.500000X0.020000*%
%ADD42R,0.520000X0.020000*%
%ADD43R,0.940000X0.020000*%
%ADD44R,0.260000X0.020000*%
%ADD45R,0.180000X0.020000*%
%ADD46R,0.580000X0.020000*%
%ADD47R,0.060000X0.020000*%
%ADD48R,0.600000X0.020000*%
%ADD49R,0.300000X0.020000*%
%ADD50R,0.040000X0.020000*%
%ADD51R,0.100000X0.020000*%
%ADD52R,0.160000X0.020000*%
%ADD53R,0.220000X0.020000*%
%ADD54R,0.980000X0.020000*%
%ADD55R,0.880000X0.020000*%
%ADD56R,0.760000X0.020000*%
%ADD57R,1.060000X0.020000*%
%ADD58R,0.720000X0.020000*%
%ADD59R,0.820000X0.020000*%
%ADD60R,1.180000X0.020000*%
%ADD61R,1.340000X0.020000*%
%ADD62R,1.460000X0.020000*%
%ADD63R,1.600000X0.020000*%
%ADD64R,1.700000X0.020000*%
%ADD65R,1.820000X0.020000*%
%ADD66R,1.900000X0.020000*%
%ADD67R,1.980000X0.020000*%
%ADD68R,2.100000X0.020000*%
%ADD69R,2.160000X0.020000*%
%ADD70R,2.260000X0.020000*%
%ADD71R,2.340000X0.020000*%
%ADD72R,2.400000X0.020000*%
%ADD73R,2.480000X0.020000*%
%ADD74R,2.540000X0.020000*%
%ADD75R,2.600000X0.020000*%
%ADD76R,2.680000X0.020000*%
%ADD77R,2.720000X0.020000*%
%ADD78R,2.800000X0.020000*%
%ADD79R,2.840000X0.020000*%
%ADD80R,2.900000X0.020000*%
%ADD81R,2.960000X0.020000*%
%ADD82R,3.000000X0.020000*%
%ADD83R,3.060000X0.020000*%
%ADD84R,3.120000X0.020000*%
%ADD85R,3.160000X0.020000*%
%ADD86R,3.200000X0.020000*%
%ADD87R,3.260000X0.020000*%
%ADD88R,3.300000X0.020000*%
%ADD89R,3.340000X0.020000*%
%ADD90R,3.380000X0.020000*%
%ADD91R,3.420000X0.020000*%
%ADD92R,3.460000X0.020000*%
%ADD93R,3.520000X0.020000*%
%ADD94R,3.540000X0.020000*%
%ADD95R,3.580000X0.020000*%
%ADD96R,3.620000X0.020000*%
%ADD97R,3.660000X0.020000*%
%ADD98R,3.700000X0.020000*%
%ADD99R,3.740000X0.020000*%
%ADD100R,3.780000X0.020000*%
%ADD101R,3.800000X0.020000*%
%ADD102R,3.840000X0.020000*%
%ADD103R,3.860000X0.020000*%
%ADD104R,3.900000X0.020000*%
%ADD105R,3.940000X0.020000*%
%ADD106R,3.960000X0.020000*%
%ADD107R,3.980000X0.020000*%
%ADD108R,4.020000X0.020000*%
%ADD109R,4.060000X0.020000*%
%ADD110R,4.080000X0.020000*%
%ADD111R,4.100000X0.020000*%
%ADD112R,4.120000X0.020000*%
%ADD113R,4.160000X0.020000*%
%ADD114R,4.180000X0.020000*%
%ADD115R,4.200000X0.020000*%
%ADD116R,4.240000X0.020000*%
%ADD117R,4.260000X0.020000*%
%ADD118R,4.280000X0.020000*%
%ADD119R,4.300000X0.020000*%
%ADD120R,4.320000X0.020000*%
%ADD121R,4.340000X0.020000*%
%ADD122R,4.380000X0.020000*%
%ADD123R,4.400000X0.020000*%
%ADD124R,4.440000X0.020000*%
%ADD125R,4.460000X0.020000*%
%ADD126R,4.500000X0.020000*%
%ADD127R,4.520000X0.020000*%
%ADD128R,4.540000X0.020000*%
%ADD129R,4.560000X0.020000*%
%ADD130R,4.580000X0.020000*%
%ADD131R,4.600000X0.020000*%
%ADD132R,4.620000X0.020000*%
%ADD133R,4.640000X0.020000*%
%ADD134R,4.660000X0.020000*%
%ADD135R,4.680000X0.020000*%
%ADD136R,4.700000X0.020000*%
%ADD137R,4.720000X0.020000*%
%ADD138R,4.740000X0.020000*%
%ADD139R,0.680000X0.020000*%
%ADD140R,1.480000X0.020000*%
%ADD141R,1.580000X0.020000*%
%ADD142R,1.560000X0.020000*%
%ADD143R,1.540000X0.020000*%
%ADD144R,1.520000X0.020000*%
%ADD145R,1.500000X0.020000*%
%ADD146R,1.440000X0.020000*%
%ADD147R,1.400000X0.020000*%
%ADD148R,1.420000X0.020000*%
%ADD149R,1.380000X0.020000*%
%ADD150R,1.360000X0.020000*%
%ADD151R,1.320000X0.020000*%
%ADD152R,1.300000X0.020000*%
%ADD153R,1.260000X0.020000*%
%ADD154R,1.220000X0.020000*%
%ADD155R,1.200000X0.020000*%
%ADD156R,1.040000X0.020000*%
%ADD157R,1.020000X0.020000*%
%ADD158R,1.000000X0.020000*%
%ADD159R,1.280000X0.020000*%
%ADD160R,0.780000X0.020000*%
%ADD161R,1.240000X0.020000*%
%ADD162R,0.020000X0.020000*%
%ADD163R,1.840000X0.020000*%
%ADD164R,1.800000X0.020000*%
%ADD165R,1.780000X0.020000*%
%ADD166R,1.760000X0.020000*%
%ADD167R,1.740000X0.020000*%
%ADD168R,1.680000X0.020000*%
%ADD169R,1.660000X0.020000*%
%ADD170R,1.620000X0.020000*%
%ADD171C,0.152400*%

G36*
X220661Y175154D02*
X220661Y175154D01*
X220660Y175154D01*
X220661Y175155D01*
X220658Y177545D01*
X220653Y179932D01*
X220650Y182321D01*
X220645Y184711D01*
X220642Y187098D01*
X220637Y189487D01*
X220634Y191874D01*
X220634Y191877D01*
X220629Y194264D01*
X220626Y196654D01*
X220624Y199041D01*
X220618Y201430D01*
X220616Y203817D01*
X220610Y206207D01*
X220608Y208594D01*
X220603Y208600D01*
X220602Y208604D01*
X218300Y209938D01*
X215998Y211271D01*
X213699Y212605D01*
X209096Y215272D01*
X206797Y216605D01*
X202194Y219272D01*
X199895Y220606D01*
X197593Y221939D01*
X195286Y223278D01*
X192980Y224614D01*
X190675Y225950D01*
X188368Y227289D01*
X186061Y228628D01*
X183757Y229964D01*
X181450Y231303D01*
X179146Y232642D01*
X176839Y233983D01*
X174558Y235316D01*
X176952Y236352D01*
X179377Y237381D01*
X181801Y238408D01*
X184228Y239432D01*
X186655Y240453D01*
X189082Y241475D01*
X191509Y242494D01*
X193938Y243515D01*
X196365Y244531D01*
X198672Y245499D01*
X200976Y246468D01*
X203283Y247433D01*
X205588Y248401D01*
X207895Y249367D01*
X210199Y250335D01*
X212506Y251303D01*
X214810Y252271D01*
X217117Y253239D01*
X219421Y254207D01*
X219422Y254207D01*
X220600Y254709D01*
X220603Y254714D01*
X220607Y254718D01*
X220606Y254720D01*
X220607Y254723D01*
X220600Y254726D01*
X220596Y254732D01*
X215294Y254732D01*
X212643Y254734D01*
X188786Y254734D01*
X186135Y254737D01*
X164933Y254737D01*
X162282Y254740D01*
X141076Y254740D01*
X141065Y254729D01*
X141065Y254728D01*
X141064Y254728D01*
X141067Y252335D01*
X141072Y249940D01*
X141075Y247548D01*
X141080Y245153D01*
X141083Y242761D01*
X141086Y240366D01*
X141091Y237971D01*
X141094Y235579D01*
X141099Y233184D01*
X141102Y230791D01*
X141107Y228396D01*
X141110Y226004D01*
X141115Y223609D01*
X141118Y221214D01*
X141123Y221208D01*
X141124Y221204D01*
X143420Y219876D01*
X145714Y218545D01*
X148010Y217217D01*
X150306Y215886D01*
X152600Y214555D01*
X154896Y213227D01*
X157190Y211896D01*
X159486Y210565D01*
X161782Y209237D01*
X164076Y207906D01*
X170981Y203906D01*
X173282Y202569D01*
X177886Y199902D01*
X180185Y198566D01*
X182486Y197233D01*
X184785Y195894D01*
X187064Y194567D01*
X184640Y193512D01*
X182184Y192470D01*
X179730Y191432D01*
X177274Y190395D01*
X174815Y189360D01*
X172356Y188325D01*
X169897Y187293D01*
X167438Y186261D01*
X165133Y185295D01*
X162826Y184327D01*
X160520Y183359D01*
X158213Y182394D01*
X155908Y181426D01*
X153601Y180457D01*
X151294Y179492D01*
X148990Y178524D01*
X146683Y177556D01*
X144379Y176588D01*
X142699Y175881D01*
X141018Y175174D01*
X141016Y175169D01*
X141011Y175165D01*
X141013Y175163D01*
X141012Y175160D01*
X141018Y175157D01*
X141023Y175151D01*
X146330Y175151D01*
X148984Y175148D01*
X183490Y175148D01*
X186143Y175146D01*
X217995Y175146D01*
X220649Y175143D01*
X220661Y175154D01*
G37*
G36*
X189446Y154002D02*
X189446Y154002D01*
X190835Y154071D01*
X190837Y154073D01*
X190838Y154072D01*
X193023Y154821D01*
X193024Y154823D01*
X193026Y154823D01*
X194925Y156132D01*
X194925Y156134D01*
X194927Y156134D01*
X196383Y157924D01*
X196383Y157926D01*
X196385Y157927D01*
X197257Y160061D01*
X197256Y160063D01*
X197258Y160064D01*
X197439Y162083D01*
X197438Y162084D01*
X197439Y162085D01*
X197210Y164096D01*
X197208Y164098D01*
X197209Y164100D01*
X196182Y166396D01*
X196180Y166397D01*
X196180Y166399D01*
X194524Y168293D01*
X194522Y168293D01*
X194521Y168295D01*
X192990Y169234D01*
X192989Y169234D01*
X192989Y169235D01*
X191319Y169904D01*
X191317Y169903D01*
X191316Y169905D01*
X189446Y170076D01*
X189132Y170105D01*
X189130Y170104D01*
X189129Y170105D01*
X186942Y169913D01*
X186941Y169911D01*
X186939Y169912D01*
X185061Y169147D01*
X185061Y169145D01*
X185059Y169146D01*
X183379Y168015D01*
X183378Y168013D01*
X183377Y168013D01*
X181952Y166324D01*
X181952Y166322D01*
X181950Y166321D01*
X181084Y164292D01*
X181084Y164290D01*
X181083Y164288D01*
X180819Y162094D01*
X180820Y162092D01*
X180819Y162091D01*
X180960Y160278D01*
X180962Y160276D01*
X180961Y160274D01*
X181585Y158568D01*
X181587Y158567D01*
X181586Y158565D01*
X182853Y156645D01*
X182855Y156644D01*
X182855Y156642D01*
X184615Y155165D01*
X184618Y155165D01*
X184618Y155163D01*
X186728Y154240D01*
X186730Y154241D01*
X186731Y154239D01*
X188774Y153967D01*
X188775Y153968D01*
X188776Y153967D01*
X189446Y154002D01*
G37*
G36*
X220661Y154250D02*
X220661Y154250D01*
X220660Y154250D01*
X220661Y154251D01*
X220656Y155558D01*
X220650Y156865D01*
X220647Y156869D01*
X220647Y156873D01*
X219221Y158526D01*
X216367Y161833D01*
X214940Y163487D01*
X212103Y166774D01*
X214139Y166787D01*
X216203Y166801D01*
X218265Y166814D01*
X220329Y166830D01*
X220341Y166841D01*
X220340Y166841D01*
X220341Y166842D01*
X220341Y169824D01*
X220330Y169836D01*
X220330Y169835D01*
X220329Y169836D01*
X207527Y169836D01*
X207516Y169825D01*
X207516Y169824D01*
X207515Y169824D01*
X207515Y167314D01*
X207519Y167310D01*
X207518Y167306D01*
X208956Y165637D01*
X210393Y163967D01*
X211828Y162295D01*
X213266Y160625D01*
X214701Y158956D01*
X216121Y157303D01*
X215484Y157295D01*
X215482Y157295D01*
X214525Y157283D01*
X214523Y157283D01*
X214005Y157277D01*
X213566Y157271D01*
X213564Y157271D01*
X212607Y157259D01*
X212605Y157259D01*
X212604Y157259D01*
X211864Y157250D01*
X211648Y157247D01*
X211646Y157247D01*
X210690Y157235D01*
X210688Y157235D01*
X209732Y157224D01*
X209730Y157224D01*
X209730Y157223D01*
X209722Y157223D01*
X208773Y157212D01*
X208771Y157212D01*
X207814Y157200D01*
X207812Y157200D01*
X207581Y157197D01*
X207569Y157186D01*
X207569Y157185D01*
X207539Y155718D01*
X207510Y154251D01*
X207520Y154239D01*
X207521Y154240D01*
X207522Y154239D01*
X220649Y154239D01*
X220661Y154250D01*
G37*
G36*
X165624Y154082D02*
X165624Y154082D01*
X165626Y154084D01*
X165628Y154083D01*
X167948Y154941D01*
X167949Y154944D01*
X167951Y154943D01*
X169893Y156474D01*
X169893Y156476D01*
X169895Y156477D01*
X171266Y158536D01*
X171266Y158538D01*
X171267Y158538D01*
X171830Y160213D01*
X171830Y160214D01*
X171829Y160215D01*
X171831Y160216D01*
X171959Y161985D01*
X171958Y161986D01*
X171959Y161986D01*
X171804Y163915D01*
X171802Y163916D01*
X171803Y163918D01*
X171118Y165723D01*
X171116Y165724D01*
X171117Y165726D01*
X169973Y167489D01*
X169970Y167489D01*
X169970Y167491D01*
X168373Y168854D01*
X168371Y168854D01*
X168370Y168856D01*
X166466Y169747D01*
X166464Y169746D01*
X166464Y169747D01*
X165125Y170073D01*
X165123Y170072D01*
X165122Y170073D01*
X164893Y170076D01*
X164891Y170076D01*
X164011Y170088D01*
X164009Y170088D01*
X163743Y170092D01*
X163743Y170091D01*
X163743Y170092D01*
X163591Y170088D01*
X163590Y170088D01*
X163088Y170076D01*
X163087Y170076D01*
X162585Y170064D01*
X162583Y170064D01*
X162393Y170060D01*
X162392Y170059D01*
X162391Y170059D01*
X161074Y169793D01*
X161073Y169792D01*
X161072Y169792D01*
X159594Y169203D01*
X159593Y169201D01*
X159592Y169202D01*
X158275Y168313D01*
X158274Y168310D01*
X158271Y168310D01*
X157791Y167544D01*
X157793Y167535D01*
X157792Y167530D01*
X158781Y166368D01*
X158782Y166367D01*
X159806Y165231D01*
X159812Y165230D01*
X159813Y165229D01*
X159818Y165229D01*
X159818Y165230D01*
X159822Y165229D01*
X159822Y165230D01*
X160413Y165664D01*
X162139Y166646D01*
X164100Y166907D01*
X165533Y166609D01*
X166759Y165812D01*
X167957Y164093D01*
X168366Y162039D01*
X167957Y159982D01*
X166759Y158266D01*
X165523Y157465D01*
X164076Y157168D01*
X162107Y157399D01*
X160389Y158406D01*
X159697Y158946D01*
X159681Y158945D01*
X158587Y157860D01*
X157497Y156772D01*
X157496Y156768D01*
X157496Y156767D01*
X157496Y156756D01*
X157497Y156756D01*
X157497Y156755D01*
X158001Y156238D01*
X158002Y156238D01*
X158002Y156237D01*
X159215Y155258D01*
X159217Y155258D01*
X159217Y155257D01*
X160582Y154502D01*
X160585Y154503D01*
X160586Y154501D01*
X163077Y153973D01*
X163078Y153974D01*
X163080Y153972D01*
X165624Y154082D01*
G37*
G36*
X148598Y153996D02*
X148598Y153996D01*
X148599Y153998D01*
X148601Y153997D01*
X150945Y154714D01*
X150946Y154716D01*
X150948Y154716D01*
X153029Y156145D01*
X153029Y156148D01*
X153031Y156148D01*
X154536Y158172D01*
X154535Y158175D01*
X154537Y158176D01*
X155340Y160571D01*
X155339Y160573D01*
X155341Y160574D01*
X155397Y163097D01*
X155395Y163099D01*
X155396Y163099D01*
X155395Y163099D01*
X155396Y163101D01*
X154690Y165525D01*
X154687Y165527D01*
X154688Y165529D01*
X153261Y167609D01*
X153259Y167609D01*
X153259Y167611D01*
X151354Y169121D01*
X151352Y169121D01*
X151351Y169123D01*
X149074Y169968D01*
X149071Y169967D01*
X149070Y169969D01*
X146643Y170126D01*
X146642Y170125D01*
X146640Y170126D01*
X144040Y169630D01*
X144038Y169628D01*
X144036Y169629D01*
X141737Y168319D01*
X141736Y168316D01*
X141734Y168316D01*
X141200Y167604D01*
X141201Y167592D01*
X141201Y167589D01*
X142217Y166394D01*
X143265Y165231D01*
X143281Y165229D01*
X143985Y165736D01*
X145369Y166564D01*
X146942Y166907D01*
X148889Y166657D01*
X150503Y165543D01*
X151671Y163342D01*
X151692Y160847D01*
X150572Y158620D01*
X149062Y157505D01*
X147216Y157146D01*
X145409Y157460D01*
X143830Y158408D01*
X143143Y158936D01*
X143127Y158935D01*
X142097Y157903D01*
X142097Y157902D01*
X141067Y156753D01*
X141067Y156737D01*
X141068Y156737D01*
X141068Y156736D01*
X142775Y155170D01*
X142778Y155170D01*
X142778Y155168D01*
X144605Y154336D01*
X144607Y154337D01*
X144608Y154335D01*
X146584Y153957D01*
X146586Y153958D01*
X146587Y153956D01*
X148598Y153996D01*
G37*
%LPC*%
G36*
X189997Y157273D02*
X189997Y157273D01*
X189619Y157285D01*
X189445Y157290D01*
X189209Y157298D01*
X188837Y157310D01*
X188836Y157310D01*
X188464Y157322D01*
X188092Y157333D01*
X188091Y157333D01*
X187720Y157345D01*
X187719Y157345D01*
X187702Y157346D01*
X185537Y158785D01*
X184560Y160786D01*
X184515Y163010D01*
X185409Y165045D01*
X187117Y166468D01*
X189133Y166934D01*
X189443Y166868D01*
X191160Y166498D01*
X192782Y165213D01*
X193746Y163039D01*
X193647Y160663D01*
X192482Y158594D01*
X190287Y157264D01*
X189997Y157273D01*
G37*
%LPD*%
G36*
X204128Y154250D02*
X204128Y154250D01*
X204127Y154250D01*
X204128Y154251D01*
X204128Y169824D01*
X204118Y169836D01*
X204117Y169835D01*
X204116Y169836D01*
X200702Y169836D01*
X200691Y169825D01*
X200691Y169824D01*
X200691Y154251D01*
X200701Y154239D01*
X200702Y154240D01*
X200702Y154239D01*
X204116Y154239D01*
X204128Y154250D01*
G37*
G36*
X178208Y154250D02*
X178208Y154250D01*
X178207Y154250D01*
X178208Y154251D01*
X178208Y157772D01*
X178197Y157783D01*
X178196Y157783D01*
X174569Y157783D01*
X174557Y157773D01*
X174557Y157772D01*
X174557Y154251D01*
X174567Y154239D01*
X174568Y154240D01*
X174569Y154239D01*
X178196Y154239D01*
X178208Y154250D01*
G37*
D10*
X223520Y136151D02*
X217758Y136151D01*
X217758Y134711D01*
X223520Y128949D01*
X223520Y127508D01*
X217758Y127508D01*
X214633Y133270D02*
X213192Y133270D01*
X213192Y127508D01*
X214633Y127508D02*
X211751Y127508D01*
X213192Y136151D02*
X213192Y137592D01*
X207267Y127508D02*
X204386Y127508D01*
X202945Y128949D01*
X202945Y131830D01*
X204386Y133270D01*
X207267Y133270D01*
X208708Y131830D01*
X208708Y128949D01*
X207267Y127508D01*
X190933Y128949D02*
X190933Y134711D01*
X189492Y136151D01*
X186611Y136151D01*
X185171Y134711D01*
X185171Y128949D01*
X186611Y127508D01*
X189492Y127508D01*
X190933Y128949D01*
X188052Y130389D02*
X185171Y127508D01*
X182045Y128949D02*
X182045Y133270D01*
X182045Y128949D02*
X180605Y127508D01*
X179164Y128949D01*
X177724Y127508D01*
X176283Y128949D01*
X176283Y133270D01*
X173158Y133270D02*
X171717Y133270D01*
X171717Y127508D01*
X170277Y127508D02*
X173158Y127508D01*
X171717Y136151D02*
X171717Y137592D01*
X167233Y133270D02*
X165793Y133270D01*
X165793Y127508D01*
X167233Y127508D02*
X164352Y127508D01*
X165793Y136151D02*
X165793Y137592D01*
X159868Y133270D02*
X155546Y133270D01*
X159868Y133270D02*
X161308Y131830D01*
X161308Y128949D01*
X159868Y127508D01*
X155546Y127508D01*
X139212Y136151D02*
X137771Y134711D01*
X139212Y136151D02*
X142093Y136151D01*
X143533Y134711D01*
X143533Y128949D01*
X142093Y127508D01*
X139212Y127508D01*
X137771Y128949D01*
X137771Y131830D01*
X140652Y131830D01*
X133205Y127508D02*
X130324Y127508D01*
X133205Y127508D02*
X134646Y128949D01*
X134646Y131830D01*
X133205Y133270D01*
X130324Y133270D01*
X128884Y131830D01*
X128884Y130389D01*
X134646Y130389D01*
X125759Y127508D02*
X121437Y127508D01*
X119996Y128949D01*
X121437Y130389D01*
X124318Y130389D01*
X125759Y131830D01*
X124318Y133270D01*
X119996Y133270D01*
X115431Y134711D02*
X115431Y128949D01*
X113990Y127508D01*
X113990Y133270D02*
X116871Y133270D01*
X110946Y133270D02*
X110946Y128949D01*
X109506Y127508D01*
X105184Y127508D01*
X105184Y133270D01*
X102059Y133270D02*
X102059Y127508D01*
X102059Y130389D02*
X99178Y133270D01*
X97737Y133270D01*
X93212Y127508D02*
X90331Y127508D01*
X93212Y127508D02*
X94653Y128949D01*
X94653Y131830D01*
X93212Y133270D01*
X90331Y133270D01*
X88890Y131830D01*
X88890Y130389D01*
X94653Y130389D01*
X72556Y136151D02*
X71116Y134711D01*
X72556Y136151D02*
X75437Y136151D01*
X76878Y134711D01*
X76878Y133270D01*
X75437Y131830D01*
X72556Y131830D01*
X71116Y130389D01*
X71116Y128949D01*
X72556Y127508D01*
X75437Y127508D01*
X76878Y128949D01*
X66550Y127508D02*
X63669Y127508D01*
X66550Y127508D02*
X67990Y128949D01*
X67990Y131830D01*
X66550Y133270D01*
X63669Y133270D01*
X62228Y131830D01*
X62228Y130389D01*
X67990Y130389D01*
X59103Y127508D02*
X59103Y133270D01*
X54781Y133270D01*
X53341Y131830D01*
X53341Y127508D01*
X50216Y127508D02*
X45894Y127508D01*
X44453Y128949D01*
X45894Y130389D01*
X48775Y130389D01*
X50216Y131830D01*
X48775Y133270D01*
X44453Y133270D01*
X39888Y127508D02*
X37006Y127508D01*
X35566Y128949D01*
X35566Y131830D01*
X37006Y133270D01*
X39888Y133270D01*
X41328Y131830D01*
X41328Y128949D01*
X39888Y127508D01*
X32441Y127508D02*
X32441Y133270D01*
X32441Y130389D02*
X29560Y133270D01*
X28119Y133270D01*
X223520Y121673D02*
X223520Y113030D01*
X223520Y121673D02*
X219198Y121673D01*
X217758Y120233D01*
X217758Y117352D01*
X219198Y115911D01*
X223520Y115911D01*
X214633Y113030D02*
X214633Y118792D01*
X211751Y121673D01*
X208870Y118792D01*
X208870Y113030D01*
X208870Y117352D02*
X214633Y117352D01*
X205745Y114471D02*
X204305Y113030D01*
X202864Y113030D01*
X201424Y114471D01*
X201424Y121673D01*
X202864Y121673D02*
X199983Y121673D01*
X196858Y121673D02*
X191096Y121673D01*
X191096Y120233D01*
X196858Y114471D01*
X196858Y113030D01*
X185089Y120233D02*
X182208Y121673D01*
X185089Y120233D02*
X187970Y117352D01*
X187970Y114471D01*
X186530Y113030D01*
X183649Y113030D01*
X182208Y114471D01*
X182208Y115911D01*
X183649Y117352D01*
X187970Y117352D01*
X179083Y113030D02*
X173321Y113030D01*
X179083Y113030D02*
X173321Y118792D01*
X173321Y120233D01*
X174761Y121673D01*
X177642Y121673D01*
X179083Y120233D01*
X170196Y120233D02*
X170196Y114471D01*
X170196Y120233D02*
X168755Y121673D01*
X165874Y121673D01*
X164433Y120233D01*
X164433Y114471D01*
X165874Y113030D01*
X168755Y113030D01*
X170196Y114471D01*
X164433Y120233D01*
X161308Y121673D02*
X161308Y114471D01*
X159868Y113030D01*
X156986Y113030D01*
X155546Y114471D01*
X155546Y121673D01*
X152421Y113030D02*
X146659Y113030D01*
X152421Y113030D02*
X146659Y118792D01*
X146659Y120233D01*
X148099Y121673D01*
X150980Y121673D01*
X152421Y120233D01*
D11*
X111178Y248846D03*
D12*
X105878Y248846D03*
X101678Y248846D03*
D13*
X93778Y248846D03*
X86178Y248846D03*
D12*
X82078Y248846D03*
X77878Y248846D03*
D14*
X70078Y248846D03*
D15*
X111178Y248646D03*
D16*
X105778Y248646D03*
X101578Y248646D03*
X93778Y248646D03*
D12*
X86078Y248646D03*
D16*
X82178Y248646D03*
X77778Y248646D03*
D13*
X69978Y248646D03*
D17*
X111278Y248446D03*
D16*
X105778Y248446D03*
X101578Y248446D03*
D18*
X93878Y248446D03*
D16*
X86178Y248446D03*
X82178Y248446D03*
X77778Y248446D03*
D19*
X69978Y248446D03*
X111178Y248246D03*
D16*
X105778Y248246D03*
X101578Y248246D03*
D18*
X93878Y248246D03*
D12*
X86278Y248246D03*
D16*
X82178Y248246D03*
X77778Y248246D03*
D20*
X70078Y248246D03*
D21*
X111178Y248046D03*
D16*
X105778Y248046D03*
X101378Y248046D03*
D22*
X93778Y248046D03*
D12*
X86278Y248046D03*
D16*
X82178Y248046D03*
X77778Y248046D03*
D23*
X69978Y248046D03*
D24*
X111278Y247846D03*
D16*
X105778Y247846D03*
X101378Y247846D03*
D22*
X93778Y247846D03*
D16*
X86378Y247846D03*
X82178Y247846D03*
X77778Y247846D03*
D25*
X70078Y247846D03*
D26*
X111278Y247646D03*
D18*
X105878Y247646D03*
D12*
X101278Y247646D03*
D17*
X93878Y247646D03*
D12*
X86478Y247646D03*
D16*
X82178Y247646D03*
X77778Y247646D03*
D27*
X70078Y247646D03*
D28*
X109378Y247446D03*
D16*
X101178Y247446D03*
D17*
X93878Y247446D03*
D12*
X86478Y247446D03*
D16*
X82178Y247446D03*
X77778Y247446D03*
D29*
X69978Y247446D03*
D30*
X109478Y247246D03*
D16*
X101178Y247246D03*
D31*
X93778Y247246D03*
D12*
X86478Y247246D03*
D16*
X82178Y247246D03*
X77778Y247246D03*
D32*
X69978Y247246D03*
D33*
X109578Y247046D03*
D12*
X101078Y247046D03*
D34*
X93878Y247046D03*
D12*
X86678Y247046D03*
D16*
X82178Y247046D03*
X77778Y247046D03*
D35*
X70078Y247046D03*
D33*
X109578Y246846D03*
D12*
X101078Y246846D03*
D34*
X93878Y246846D03*
D12*
X86678Y246846D03*
D16*
X82178Y246846D03*
X77778Y246846D03*
D36*
X70078Y246846D03*
D37*
X109678Y246646D03*
D16*
X100978Y246646D03*
D19*
X93778Y246646D03*
D13*
X86778Y246646D03*
D16*
X82178Y246646D03*
X77778Y246646D03*
D38*
X69978Y246646D03*
D39*
X109778Y246446D03*
D12*
X100878Y246446D03*
D19*
X93778Y246446D03*
D12*
X86878Y246446D03*
D16*
X82178Y246446D03*
X77778Y246446D03*
D40*
X69978Y246446D03*
D39*
X109778Y246246D03*
D12*
X100878Y246246D03*
D41*
X93878Y246246D03*
D12*
X86878Y246246D03*
D16*
X82178Y246246D03*
X77778Y246246D03*
D40*
X70178Y246246D03*
D39*
X109778Y246046D03*
D16*
X100778Y246046D03*
D42*
X93778Y246046D03*
D12*
X86878Y246046D03*
D16*
X82178Y246046D03*
X77778Y246046D03*
D43*
X70278Y246046D03*
D19*
X113378Y245846D03*
D20*
X106678Y245846D03*
D12*
X100678Y245846D03*
D42*
X93778Y245846D03*
D13*
X86978Y245846D03*
D16*
X82178Y245846D03*
X77778Y245846D03*
D19*
X72778Y245846D03*
D13*
X67578Y245846D03*
D34*
X113678Y245646D03*
D41*
X106478Y245646D03*
D12*
X100678Y245646D03*
D42*
X93778Y245646D03*
D12*
X87078Y245646D03*
D16*
X82178Y245646D03*
X77778Y245646D03*
D31*
X72978Y245646D03*
D44*
X67478Y245646D03*
D17*
X113878Y245446D03*
D34*
X106278Y245446D03*
D16*
X100578Y245446D03*
D20*
X93878Y245446D03*
D13*
X87178Y245446D03*
D16*
X82178Y245446D03*
X77778Y245446D03*
D17*
X73278Y245446D03*
D45*
X67478Y245446D03*
D22*
X113978Y245246D03*
D31*
X106178Y245246D03*
D12*
X100478Y245246D03*
D20*
X93878Y245246D03*
D13*
X87178Y245246D03*
D16*
X82178Y245246D03*
X77778Y245246D03*
D22*
X73378Y245246D03*
D11*
X67578Y245246D03*
D22*
X113978Y245046D03*
D17*
X106078Y245046D03*
D12*
X100478Y245046D03*
D46*
X93878Y245046D03*
D12*
X87278Y245046D03*
D16*
X82178Y245046D03*
X77778Y245046D03*
D18*
X73478Y245046D03*
D47*
X67678Y245046D03*
D18*
X114078Y244846D03*
D22*
X105978Y244846D03*
D13*
X100378Y244846D03*
D46*
X93878Y244846D03*
D13*
X87378Y244846D03*
D16*
X82178Y244846D03*
X77778Y244846D03*
X73578Y244846D03*
D18*
X114278Y244646D03*
D22*
X105978Y244646D03*
D12*
X100278Y244646D03*
D48*
X93778Y244646D03*
D13*
X87378Y244646D03*
D16*
X82178Y244646D03*
X77778Y244646D03*
D18*
X73678Y244646D03*
X114278Y244446D03*
D22*
X105978Y244446D03*
D12*
X100278Y244446D03*
D48*
X93778Y244446D03*
D13*
X87578Y244446D03*
D16*
X82178Y244446D03*
X77778Y244446D03*
D18*
X73678Y244446D03*
X114278Y244246D03*
X105878Y244246D03*
D13*
X100178Y244246D03*
D15*
X95378Y244246D03*
D49*
X92278Y244246D03*
D13*
X87578Y244246D03*
D16*
X82178Y244246D03*
X77778Y244246D03*
X73778Y244246D03*
X114378Y244046D03*
D18*
X105878Y244046D03*
D12*
X100078Y244046D03*
D15*
X95578Y244046D03*
D49*
X92278Y244046D03*
D13*
X87578Y244046D03*
D16*
X82178Y244046D03*
X77778Y244046D03*
X73778Y244046D03*
X114378Y243846D03*
D18*
X105878Y243846D03*
D12*
X100078Y243846D03*
D15*
X95578Y243846D03*
D49*
X92078Y243846D03*
X87678Y243846D03*
D16*
X82178Y243846D03*
X77778Y243846D03*
X73778Y243846D03*
X114378Y243646D03*
X105778Y243646D03*
D13*
X99978Y243646D03*
D49*
X95678Y243646D03*
X92078Y243646D03*
D13*
X87778Y243646D03*
D16*
X82178Y243646D03*
X77778Y243646D03*
X73778Y243646D03*
X114378Y243446D03*
X105778Y243446D03*
D12*
X99878Y243446D03*
D49*
X95678Y243446D03*
X92078Y243446D03*
D13*
X87778Y243446D03*
D16*
X82178Y243446D03*
X77778Y243446D03*
X73778Y243446D03*
X114378Y243246D03*
X105778Y243246D03*
D13*
X99778Y243246D03*
D15*
X95778Y243246D03*
X91978Y243246D03*
D49*
X87878Y243246D03*
D16*
X82178Y243246D03*
X77778Y243246D03*
X73778Y243246D03*
X114378Y243046D03*
X105778Y243046D03*
D13*
X99778Y243046D03*
D15*
X95778Y243046D03*
D49*
X91878Y243046D03*
D13*
X87978Y243046D03*
D16*
X82178Y243046D03*
X77778Y243046D03*
X73778Y243046D03*
X114378Y242846D03*
X105778Y242846D03*
D13*
X99778Y242846D03*
D15*
X95978Y242846D03*
D49*
X91878Y242846D03*
X88078Y242846D03*
D16*
X82178Y242846D03*
X77778Y242846D03*
X73778Y242846D03*
X114378Y242646D03*
D18*
X105878Y242646D03*
D12*
X99678Y242646D03*
D15*
X95978Y242646D03*
D49*
X91678Y242646D03*
X88078Y242646D03*
D16*
X82178Y242646D03*
X77778Y242646D03*
X73778Y242646D03*
X114378Y242446D03*
D18*
X105878Y242446D03*
D13*
X99578Y242446D03*
D15*
X95978Y242446D03*
D49*
X91678Y242446D03*
X88078Y242446D03*
D16*
X82178Y242446D03*
X77778Y242446D03*
X73778Y242446D03*
D18*
X114278Y242246D03*
X105878Y242246D03*
D13*
X99578Y242246D03*
D15*
X95978Y242246D03*
D49*
X91678Y242246D03*
D13*
X88178Y242246D03*
D16*
X82178Y242246D03*
X77778Y242246D03*
D18*
X73678Y242246D03*
X114278Y242046D03*
D22*
X105978Y242046D03*
D13*
X99378Y242046D03*
D15*
X96178Y242046D03*
D49*
X91678Y242046D03*
X88278Y242046D03*
D16*
X82178Y242046D03*
X77778Y242046D03*
D18*
X73678Y242046D03*
X114278Y241846D03*
D22*
X105978Y241846D03*
D24*
X97878Y241846D03*
X89878Y241846D03*
D16*
X82178Y241846D03*
X77778Y241846D03*
D18*
X73478Y241846D03*
D50*
X67578Y241846D03*
D18*
X114078Y241646D03*
D22*
X105978Y241646D03*
D24*
X97878Y241646D03*
D48*
X89978Y241646D03*
D16*
X82178Y241646D03*
X77778Y241646D03*
D18*
X73478Y241646D03*
D51*
X67478Y241646D03*
D22*
X113978Y241446D03*
D17*
X106078Y241446D03*
D46*
X97878Y241446D03*
X89878Y241446D03*
D16*
X82178Y241446D03*
X77778Y241446D03*
D22*
X73378Y241446D03*
D52*
X67378Y241446D03*
D22*
X113978Y241246D03*
D31*
X106178Y241246D03*
D46*
X97878Y241246D03*
X89878Y241246D03*
D16*
X82178Y241246D03*
X77778Y241246D03*
D17*
X73278Y241246D03*
D53*
X67278Y241246D03*
D17*
X113878Y241046D03*
D34*
X106278Y241046D03*
D46*
X97878Y241046D03*
D21*
X89978Y241046D03*
D16*
X82178Y241046D03*
X77778Y241046D03*
D31*
X72978Y241046D03*
D15*
X67378Y241046D03*
D31*
X113578Y240846D03*
D19*
X106378Y240846D03*
D20*
X97878Y240846D03*
D21*
X89978Y240846D03*
D16*
X82178Y240846D03*
X77778Y240846D03*
D40*
X70378Y240846D03*
D34*
X113478Y240646D03*
D42*
X106578Y240646D03*
D20*
X97878Y240646D03*
X89878Y240646D03*
D16*
X82178Y240646D03*
X77778Y240646D03*
D40*
X70178Y240646D03*
D42*
X112978Y240446D03*
D48*
X106978Y240446D03*
D42*
X97778Y240446D03*
X89978Y240446D03*
D16*
X82178Y240446D03*
X77778Y240446D03*
D54*
X70078Y240446D03*
D39*
X109778Y240246D03*
D41*
X97878Y240246D03*
D42*
X89978Y240246D03*
D16*
X82178Y240246D03*
X77778Y240246D03*
D43*
X70078Y240246D03*
D39*
X109778Y240046D03*
D41*
X97878Y240046D03*
D19*
X89978Y240046D03*
D16*
X82178Y240046D03*
X77778Y240046D03*
D38*
X69978Y240046D03*
D37*
X109678Y239846D03*
D19*
X97778Y239846D03*
X89978Y239846D03*
D16*
X82178Y239846D03*
X77778Y239846D03*
D55*
X69978Y239846D03*
D33*
X109578Y239646D03*
D19*
X97778Y239646D03*
X89978Y239646D03*
D16*
X82178Y239646D03*
X77778Y239646D03*
D32*
X69978Y239646D03*
D30*
X109478Y239446D03*
D34*
X97878Y239446D03*
D31*
X89978Y239446D03*
D16*
X82178Y239446D03*
X77778Y239446D03*
D29*
X69978Y239446D03*
D28*
X109378Y239246D03*
D31*
X97778Y239246D03*
X89978Y239246D03*
D16*
X82178Y239246D03*
X77778Y239246D03*
D56*
X69978Y239246D03*
D57*
X109278Y239046D03*
D17*
X97878Y239046D03*
D31*
X89978Y239046D03*
D16*
X82178Y239046D03*
X77778Y239046D03*
D58*
X69978Y239046D03*
D23*
X111178Y238846D03*
D18*
X105878Y238846D03*
D22*
X97778Y238846D03*
D17*
X90078Y238846D03*
D16*
X82178Y238846D03*
X77778Y238846D03*
D23*
X69978Y238846D03*
D48*
X111178Y238646D03*
D16*
X105778Y238646D03*
D22*
X97778Y238646D03*
X89978Y238646D03*
D16*
X82178Y238646D03*
X77778Y238646D03*
D48*
X69978Y238646D03*
D21*
X111178Y238446D03*
D16*
X105778Y238446D03*
D22*
X97778Y238446D03*
D18*
X90078Y238446D03*
D16*
X82178Y238446D03*
X77778Y238446D03*
D41*
X70078Y238446D03*
D19*
X111178Y238246D03*
D16*
X105778Y238246D03*
X97778Y238246D03*
D18*
X90078Y238246D03*
D16*
X82178Y238246D03*
X77778Y238246D03*
X69978Y238246D03*
D22*
X111178Y238046D03*
D16*
X105778Y238046D03*
X97778Y238046D03*
X89978Y238046D03*
D12*
X82078Y238046D03*
D16*
X77778Y238046D03*
D53*
X70078Y238046D03*
D15*
X111178Y237846D03*
D16*
X105778Y237846D03*
D51*
X111078Y237646D03*
D16*
X105778Y237646D03*
X105778Y237446D03*
X105778Y237246D03*
X105778Y237046D03*
X105778Y236846D03*
X105778Y236646D03*
X105778Y236446D03*
X105778Y236246D03*
X105778Y236046D03*
X105778Y235846D03*
X105778Y235646D03*
X105778Y235446D03*
D17*
X90078Y235446D03*
D16*
X105778Y235246D03*
D59*
X90078Y235246D03*
D16*
X105778Y235046D03*
D54*
X90078Y235046D03*
D16*
X105778Y234846D03*
D60*
X90078Y234846D03*
D16*
X105778Y234646D03*
D61*
X90078Y234646D03*
D16*
X105778Y234446D03*
D62*
X90078Y234446D03*
D16*
X105778Y234246D03*
D63*
X89978Y234246D03*
D12*
X105878Y234046D03*
D64*
X90078Y234046D03*
D65*
X90078Y233846D03*
D66*
X90078Y233646D03*
D67*
X90078Y233446D03*
D68*
X90078Y233246D03*
D69*
X89978Y233046D03*
D70*
X90078Y232846D03*
D71*
X90078Y232646D03*
D72*
X89978Y232446D03*
D73*
X89978Y232246D03*
D74*
X90078Y232046D03*
D75*
X89978Y231846D03*
D76*
X89978Y231646D03*
D77*
X89978Y231446D03*
D78*
X89978Y231246D03*
D79*
X89978Y231046D03*
D80*
X90078Y230846D03*
D81*
X89978Y230646D03*
D82*
X89978Y230446D03*
D83*
X90078Y230246D03*
D84*
X89978Y230046D03*
D85*
X89978Y229846D03*
D86*
X89978Y229646D03*
D87*
X90078Y229446D03*
D88*
X90078Y229246D03*
D89*
X90078Y229046D03*
D90*
X90078Y228846D03*
D91*
X90078Y228646D03*
D92*
X90078Y228446D03*
D93*
X89978Y228246D03*
D94*
X90078Y228046D03*
D95*
X90078Y227846D03*
D96*
X90078Y227646D03*
D97*
X90078Y227446D03*
D98*
X90078Y227246D03*
D99*
X90078Y227046D03*
D100*
X90078Y226846D03*
D101*
X89978Y226646D03*
D102*
X89978Y226446D03*
D103*
X90078Y226246D03*
D104*
X90078Y226046D03*
D105*
X90078Y225846D03*
D106*
X89978Y225646D03*
D107*
X90078Y225446D03*
D108*
X90078Y225246D03*
D109*
X90078Y225046D03*
D110*
X89978Y224846D03*
D111*
X90078Y224646D03*
D112*
X89978Y224446D03*
D113*
X89978Y224246D03*
D114*
X90078Y224046D03*
D115*
X89978Y223846D03*
D116*
X89978Y223646D03*
D117*
X90078Y223446D03*
D118*
X89978Y223246D03*
D119*
X90078Y223046D03*
D120*
X89978Y222846D03*
D121*
X90078Y222646D03*
D122*
X90078Y222446D03*
X90078Y222246D03*
D123*
X89978Y222046D03*
D124*
X89978Y221846D03*
D125*
X90078Y221646D03*
X90078Y221446D03*
D126*
X90078Y221246D03*
D127*
X89978Y221046D03*
X89978Y220846D03*
D128*
X90078Y220646D03*
D129*
X89978Y220446D03*
D130*
X90078Y220246D03*
D131*
X89978Y220046D03*
X89978Y219846D03*
D132*
X90078Y219646D03*
D133*
X89978Y219446D03*
D134*
X90078Y219246D03*
X90078Y219046D03*
D135*
X89978Y218846D03*
D136*
X90078Y218646D03*
D137*
X89978Y218446D03*
X89978Y218246D03*
D138*
X90078Y218046D03*
X90078Y217846D03*
D48*
X110778Y217646D03*
D23*
X69378Y217646D03*
D48*
X110978Y217446D03*
D24*
X69278Y217446D03*
D46*
X111078Y217246D03*
D24*
X69278Y217246D03*
D46*
X111078Y217046D03*
D24*
X69278Y217046D03*
D46*
X111078Y216846D03*
D23*
X69178Y216846D03*
D48*
X111178Y216646D03*
D23*
X69178Y216646D03*
D48*
X111178Y216446D03*
D23*
X69178Y216446D03*
D48*
X111178Y216246D03*
D26*
X69078Y216246D03*
D48*
X111178Y216046D03*
D26*
X69078Y216046D03*
D24*
X111278Y215846D03*
D26*
X69078Y215846D03*
D24*
X111278Y215646D03*
D26*
X69078Y215646D03*
D24*
X111278Y215446D03*
D26*
X69078Y215446D03*
D24*
X111278Y215246D03*
D26*
X69078Y215246D03*
D24*
X111278Y215046D03*
D139*
X68978Y215046D03*
D23*
X111378Y214846D03*
D139*
X68978Y214846D03*
D23*
X111378Y214646D03*
D139*
X68978Y214646D03*
D23*
X111378Y214446D03*
D139*
X68978Y214446D03*
D23*
X111378Y214246D03*
D139*
X68978Y214246D03*
D23*
X111378Y214046D03*
D25*
X68878Y214046D03*
D23*
X111378Y213846D03*
D25*
X68878Y213846D03*
D23*
X111378Y213646D03*
D25*
X68878Y213646D03*
D23*
X111378Y213446D03*
D25*
X68878Y213446D03*
D23*
X111378Y213246D03*
D25*
X68878Y213246D03*
D23*
X111378Y213046D03*
D25*
X68878Y213046D03*
D26*
X111478Y212846D03*
D34*
X101078Y212846D03*
D19*
X93978Y212846D03*
X86778Y212846D03*
D34*
X79678Y212846D03*
D25*
X68878Y212846D03*
D26*
X111478Y212646D03*
D19*
X101178Y212646D03*
X93978Y212646D03*
D41*
X86678Y212646D03*
D19*
X79578Y212646D03*
D25*
X68878Y212646D03*
D26*
X111478Y212446D03*
D19*
X101178Y212446D03*
X93978Y212446D03*
D41*
X86678Y212446D03*
D19*
X79578Y212446D03*
D25*
X68878Y212446D03*
D26*
X111478Y212246D03*
D19*
X101178Y212246D03*
X93978Y212246D03*
D41*
X86678Y212246D03*
D19*
X79578Y212246D03*
D25*
X68878Y212246D03*
D26*
X111478Y212046D03*
D19*
X101178Y212046D03*
X93978Y212046D03*
D41*
X86678Y212046D03*
D19*
X79578Y212046D03*
D25*
X68878Y212046D03*
D26*
X111478Y211846D03*
D19*
X101178Y211846D03*
X93978Y211846D03*
D41*
X86678Y211846D03*
D19*
X79578Y211846D03*
D25*
X68878Y211846D03*
D26*
X111478Y211646D03*
D19*
X101178Y211646D03*
X93978Y211646D03*
D41*
X86678Y211646D03*
D19*
X79578Y211646D03*
D25*
X68878Y211646D03*
D26*
X111478Y211446D03*
D19*
X101178Y211446D03*
X93978Y211446D03*
D41*
X86678Y211446D03*
D19*
X79578Y211446D03*
D58*
X68778Y211446D03*
D26*
X111478Y211246D03*
D19*
X101178Y211246D03*
X93978Y211246D03*
D41*
X86678Y211246D03*
D19*
X79578Y211246D03*
D58*
X68778Y211246D03*
D26*
X111478Y211046D03*
D19*
X101178Y211046D03*
X93978Y211046D03*
D41*
X86678Y211046D03*
D19*
X79578Y211046D03*
D58*
X68778Y211046D03*
D26*
X111478Y210846D03*
D19*
X101178Y210846D03*
X93978Y210846D03*
D41*
X86678Y210846D03*
D19*
X79578Y210846D03*
D58*
X68778Y210846D03*
D26*
X111478Y210646D03*
D19*
X101178Y210646D03*
X93978Y210646D03*
D41*
X86678Y210646D03*
D19*
X79578Y210646D03*
D58*
X68778Y210646D03*
D26*
X111478Y210446D03*
D19*
X101178Y210446D03*
X93978Y210446D03*
D41*
X86678Y210446D03*
D19*
X79578Y210446D03*
D58*
X68778Y210446D03*
D26*
X111478Y210246D03*
D19*
X101178Y210246D03*
X93978Y210246D03*
D41*
X86678Y210246D03*
D19*
X79578Y210246D03*
D58*
X68778Y210246D03*
D26*
X111478Y210046D03*
D19*
X101178Y210046D03*
X93978Y210046D03*
D41*
X86678Y210046D03*
D19*
X79578Y210046D03*
D58*
X68778Y210046D03*
D26*
X111478Y209846D03*
D19*
X101178Y209846D03*
X93978Y209846D03*
D41*
X86678Y209846D03*
D19*
X79578Y209846D03*
D25*
X68878Y209846D03*
D26*
X111478Y209646D03*
D19*
X101178Y209646D03*
X93978Y209646D03*
D41*
X86678Y209646D03*
D19*
X79578Y209646D03*
D25*
X68878Y209646D03*
D26*
X111478Y209446D03*
D19*
X101178Y209446D03*
X93978Y209446D03*
D41*
X86678Y209446D03*
D19*
X79578Y209446D03*
D25*
X68878Y209446D03*
D26*
X111478Y209246D03*
D19*
X101178Y209246D03*
X93978Y209246D03*
D41*
X86678Y209246D03*
D19*
X79578Y209246D03*
D25*
X68878Y209246D03*
D26*
X111478Y209046D03*
D19*
X101178Y209046D03*
X93978Y209046D03*
D41*
X86678Y209046D03*
D19*
X79578Y209046D03*
D25*
X68878Y209046D03*
D26*
X111478Y208846D03*
D19*
X101178Y208846D03*
X93978Y208846D03*
D41*
X86678Y208846D03*
D19*
X79578Y208846D03*
D25*
X68878Y208846D03*
D26*
X111478Y208646D03*
D19*
X101178Y208646D03*
X93978Y208646D03*
D41*
X86678Y208646D03*
D19*
X79578Y208646D03*
D25*
X68878Y208646D03*
D23*
X111378Y208446D03*
D19*
X101178Y208446D03*
X93978Y208446D03*
D41*
X86678Y208446D03*
D19*
X79578Y208446D03*
D25*
X68878Y208446D03*
D23*
X111378Y208246D03*
D34*
X101078Y208246D03*
D19*
X93978Y208246D03*
X86778Y208246D03*
D34*
X79678Y208246D03*
D25*
X68878Y208246D03*
D23*
X111378Y208046D03*
D25*
X68878Y208046D03*
D23*
X111378Y207846D03*
D25*
X68878Y207846D03*
D23*
X111378Y207646D03*
D25*
X68878Y207646D03*
D23*
X111378Y207446D03*
D25*
X68878Y207446D03*
D23*
X111378Y207246D03*
D25*
X68878Y207246D03*
D23*
X111378Y207046D03*
D139*
X68978Y207046D03*
D23*
X111378Y206846D03*
D139*
X68978Y206846D03*
D23*
X111378Y206646D03*
D139*
X68978Y206646D03*
D24*
X111278Y206446D03*
D139*
X68978Y206446D03*
D24*
X111278Y206246D03*
D26*
X69078Y206246D03*
D24*
X111278Y206046D03*
D26*
X69078Y206046D03*
D24*
X111278Y205846D03*
D26*
X69078Y205846D03*
D24*
X111278Y205646D03*
D26*
X69078Y205646D03*
D48*
X111178Y205446D03*
D26*
X69078Y205446D03*
D48*
X111178Y205246D03*
D26*
X69078Y205246D03*
D48*
X111178Y205046D03*
D23*
X69178Y205046D03*
D48*
X111178Y204846D03*
D23*
X69178Y204846D03*
D46*
X111078Y204646D03*
D23*
X69178Y204646D03*
D46*
X111078Y204446D03*
D23*
X69178Y204446D03*
D46*
X111078Y204246D03*
D24*
X69278Y204246D03*
D46*
X111078Y204046D03*
D24*
X69278Y204046D03*
D21*
X110978Y203846D03*
D24*
X69278Y203846D03*
D21*
X110978Y203646D03*
D48*
X69378Y203646D03*
D46*
X110878Y203446D03*
D24*
X69478Y203446D03*
D140*
X106178Y203246D03*
D26*
X90478Y203246D03*
D141*
X74278Y203246D03*
D140*
X106178Y203046D03*
D26*
X90478Y203046D03*
D141*
X74278Y203046D03*
D140*
X106178Y202846D03*
D26*
X90478Y202846D03*
D142*
X74378Y202846D03*
D140*
X106178Y202646D03*
D139*
X90378Y202646D03*
D143*
X74278Y202646D03*
D62*
X106078Y202446D03*
D139*
X90378Y202446D03*
D144*
X74378Y202446D03*
D140*
X105978Y202246D03*
D139*
X90378Y202246D03*
D144*
X74378Y202246D03*
D62*
X105878Y202046D03*
D139*
X90378Y202046D03*
D144*
X74378Y202046D03*
D62*
X105878Y201846D03*
D25*
X90278Y201846D03*
D145*
X74278Y201846D03*
D62*
X105878Y201646D03*
D139*
X90178Y201646D03*
D140*
X74378Y201646D03*
D146*
X105778Y201446D03*
D139*
X90178Y201446D03*
D62*
X74278Y201446D03*
D146*
X105778Y201246D03*
D139*
X90178Y201246D03*
D146*
X74378Y201246D03*
X105578Y201046D03*
D25*
X90078Y201046D03*
D146*
X74378Y201046D03*
X105578Y200846D03*
D25*
X90078Y200846D03*
D147*
X74378Y200846D03*
D148*
X105478Y200646D03*
D139*
X89978Y200646D03*
D147*
X74378Y200646D03*
D148*
X105478Y200446D03*
D25*
X89878Y200446D03*
D149*
X74278Y200446D03*
D148*
X105478Y200246D03*
D25*
X89878Y200246D03*
D150*
X74378Y200246D03*
D147*
X105378Y200046D03*
D25*
X89878Y200046D03*
D151*
X74378Y200046D03*
D148*
X105278Y199846D03*
D25*
X89678Y199846D03*
D151*
X74378Y199846D03*
D147*
X105178Y199646D03*
D25*
X89678Y199646D03*
D152*
X74278Y199646D03*
D147*
X105178Y199446D03*
D25*
X89678Y199446D03*
D153*
X74278Y199446D03*
D149*
X105078Y199246D03*
D58*
X89578Y199246D03*
D153*
X74278Y199246D03*
D147*
X104978Y199046D03*
D25*
X89478Y199046D03*
D154*
X74278Y199046D03*
D149*
X104878Y198846D03*
D58*
X89378Y198846D03*
D155*
X74378Y198846D03*
D150*
X104778Y198646D03*
D58*
X89378Y198646D03*
D60*
X74278Y198646D03*
D150*
X104778Y198446D03*
D58*
X89178Y198446D03*
D37*
X74278Y198446D03*
D150*
X104578Y198246D03*
D58*
X89178Y198246D03*
D37*
X74278Y198246D03*
D150*
X104578Y198046D03*
D27*
X89078Y198046D03*
D30*
X74278Y198046D03*
D61*
X104478Y197846D03*
D58*
X88978Y197846D03*
D28*
X74178Y197846D03*
D151*
X104378Y197646D03*
D27*
X88878Y197646D03*
D156*
X74178Y197646D03*
D61*
X104278Y197446D03*
D27*
X88878Y197446D03*
D157*
X74278Y197446D03*
D151*
X104178Y197246D03*
D27*
X88678Y197246D03*
D158*
X74178Y197246D03*
D61*
X104078Y197046D03*
D27*
X88678Y197046D03*
D40*
X74178Y197046D03*
D151*
X103978Y196846D03*
D27*
X88478Y196846D03*
D38*
X74178Y196846D03*
D152*
X103878Y196646D03*
D56*
X88378Y196646D03*
D36*
X74078Y196646D03*
D152*
X103878Y196446D03*
D56*
X88378Y196446D03*
D35*
X74078Y196446D03*
D152*
X103678Y196246D03*
D56*
X88178Y196246D03*
D59*
X74078Y196246D03*
D159*
X103578Y196046D03*
D56*
X88178Y196046D03*
D29*
X73978Y196046D03*
D159*
X103378Y195846D03*
D56*
X87978Y195846D03*
X73978Y195846D03*
D159*
X103378Y195646D03*
D160*
X87878Y195646D03*
D25*
X73878Y195646D03*
D153*
X103278Y195446D03*
D160*
X87678Y195446D03*
D26*
X73878Y195446D03*
D153*
X103078Y195246D03*
D160*
X87678Y195246D03*
D23*
X73778Y195246D03*
D153*
X103078Y195046D03*
D160*
X87478Y195046D03*
D48*
X73778Y195046D03*
D154*
X102878Y194846D03*
D29*
X87378Y194846D03*
D20*
X73678Y194846D03*
D161*
X102778Y194646D03*
D29*
X87178Y194646D03*
D19*
X73578Y194646D03*
D154*
X102678Y194446D03*
D29*
X87178Y194446D03*
D31*
X73578Y194446D03*
D154*
X102478Y194246D03*
D29*
X86978Y194246D03*
D18*
X73478Y194246D03*
D155*
X102378Y194046D03*
D59*
X86878Y194046D03*
D13*
X73378Y194046D03*
D155*
X102178Y193846D03*
D59*
X86678Y193846D03*
D15*
X73178Y193846D03*
D60*
X102078Y193646D03*
D32*
X86578Y193646D03*
D53*
X73078Y193646D03*
D60*
X101878Y193446D03*
D32*
X86378Y193446D03*
D14*
X72878Y193446D03*
D39*
X101778Y193246D03*
D32*
X86178Y193246D03*
D162*
X72878Y193246D03*
D39*
X101578Y193046D03*
D35*
X86078Y193046D03*
D37*
X101478Y192846D03*
D35*
X85878Y192846D03*
D37*
X101278Y192646D03*
D55*
X85778Y192646D03*
D33*
X101178Y192446D03*
D55*
X85578Y192446D03*
D33*
X100978Y192246D03*
D55*
X85378Y192246D03*
D30*
X100878Y192046D03*
D55*
X85178Y192046D03*
D30*
X100678Y191846D03*
D38*
X84978Y191846D03*
D28*
X100578Y191646D03*
D38*
X84778Y191646D03*
D28*
X100378Y191446D03*
D38*
X84578Y191446D03*
D156*
X100178Y191246D03*
D40*
X84378Y191246D03*
D156*
X99978Y191046D03*
D40*
X84178Y191046D03*
D156*
X99778Y190846D03*
D40*
X83978Y190846D03*
D158*
X99578Y190646D03*
D54*
X83678Y190646D03*
D158*
X99378Y190446D03*
D157*
X83478Y190446D03*
D40*
X99178Y190246D03*
D157*
X83278Y190246D03*
D40*
X98978Y190046D03*
D156*
X82978Y190046D03*
D43*
X98678Y189846D03*
D57*
X82678Y189846D03*
D43*
X98478Y189646D03*
D28*
X82378Y189646D03*
D36*
X98278Y189446D03*
D30*
X82078Y189446D03*
D55*
X97978Y189246D03*
D33*
X81778Y189246D03*
D35*
X97878Y189046D03*
D39*
X81378Y189046D03*
D32*
X97578Y188846D03*
D60*
X81078Y188846D03*
D59*
X97278Y188646D03*
D161*
X80578Y188646D03*
D29*
X96978Y188446D03*
D159*
X80178Y188446D03*
D56*
X96778Y188246D03*
D61*
X79678Y188246D03*
D27*
X96478Y188046D03*
D148*
X79078Y188046D03*
D58*
X96178Y187846D03*
D143*
X78278Y187846D03*
D47*
X69278Y187846D03*
D139*
X95778Y187646D03*
D163*
X76578Y187646D03*
D26*
X95478Y187446D03*
D65*
X76478Y187446D03*
D46*
X95078Y187246D03*
D164*
X76378Y187246D03*
D20*
X94678Y187046D03*
D165*
X76278Y187046D03*
D41*
X94278Y186846D03*
D166*
X76178Y186846D03*
D31*
X93778Y186646D03*
D167*
X76078Y186646D03*
D22*
X93378Y186446D03*
D64*
X75878Y186446D03*
D49*
X92678Y186246D03*
D168*
X75778Y186246D03*
D11*
X91978Y186046D03*
D169*
X75678Y186046D03*
D170*
X75478Y185846D03*
D63*
X75378Y185646D03*
D142*
X75178Y185446D03*
D143*
X75078Y185246D03*
D144*
X74978Y185046D03*
D140*
X74778Y184846D03*
D146*
X74578Y184646D03*
D148*
X74478Y184446D03*
D149*
X74278Y184246D03*
D61*
X74078Y184046D03*
D152*
X73878Y183846D03*
D153*
X73678Y183646D03*
D154*
X73478Y183446D03*
D60*
X73278Y183246D03*
D33*
X72978Y183046D03*
D28*
X72778Y182846D03*
D157*
X72478Y182646D03*
D54*
X72278Y182446D03*
D36*
X71878Y182246D03*
D32*
X71578Y182046D03*
D160*
X71278Y181846D03*
D139*
X70778Y181646D03*
D48*
X70378Y181446D03*
D31*
X69578Y181246D03*
D171*
X152654Y40640D02*
X157734Y29210D01*
X160274Y30734D01*
X166370Y26416D01*
X170942Y31242D01*
X166878Y37338D01*
X169418Y44196D02*
X177038Y45466D01*
X177038Y52070D01*
X169418Y53594D01*
X166624Y59944D02*
X171196Y66548D01*
X166370Y71120D01*
X159766Y66548D01*
X153416Y69088D02*
X152146Y77216D01*
X145288Y77216D01*
X144018Y69088D01*
X137668Y66548D02*
X131064Y71120D01*
X126238Y66548D01*
X130810Y59944D01*
X128016Y53594D02*
X120396Y52070D01*
X120396Y45466D01*
X128016Y44196D01*
X130556Y37338D02*
X126238Y31242D01*
X131064Y26416D01*
X137160Y30734D01*
X139700Y29210D01*
X144526Y40640D01*
X144526Y40894D02*
X144322Y40996D01*
X144121Y41103D01*
X143923Y41215D01*
X143727Y41331D01*
X143534Y41453D01*
X143344Y41578D01*
X143158Y41709D01*
X142974Y41844D01*
X142794Y41984D01*
X142618Y42128D01*
X142445Y42276D01*
X142275Y42428D01*
X142110Y42585D01*
X141948Y42745D01*
X141790Y42909D01*
X141637Y43078D01*
X141487Y43250D01*
X141342Y43425D01*
X141201Y43604D01*
X141064Y43786D01*
X140932Y43972D01*
X140805Y44161D01*
X140682Y44353D01*
X140564Y44548D01*
X140451Y44745D01*
X140343Y44946D01*
X140239Y45149D01*
X140141Y45354D01*
X140047Y45562D01*
X139959Y45772D01*
X139876Y45984D01*
X139798Y46198D01*
X139726Y46414D01*
X139658Y46632D01*
X139596Y46851D01*
X139540Y47071D01*
X139488Y47293D01*
X139443Y47517D01*
X139402Y47741D01*
X139368Y47966D01*
X139338Y48192D01*
X139315Y48418D01*
X139296Y48645D01*
X139284Y48873D01*
X139277Y49101D01*
X139275Y49328D01*
X139279Y49556D01*
X139289Y49784D01*
X139304Y50011D01*
X139325Y50238D01*
X139351Y50464D01*
X139383Y50690D01*
X139420Y50914D01*
X139463Y51138D01*
X139511Y51361D01*
X139565Y51582D01*
X139624Y51802D01*
X139689Y52021D01*
X139758Y52238D01*
X139833Y52453D01*
X139914Y52666D01*
X139999Y52877D01*
X140090Y53086D01*
X140186Y53293D01*
X140286Y53497D01*
X140392Y53699D01*
X140503Y53898D01*
X140618Y54094D01*
X140738Y54288D01*
X140863Y54478D01*
X140993Y54666D01*
X141127Y54850D01*
X141265Y55031D01*
X141408Y55208D01*
X141555Y55382D01*
X141707Y55552D01*
X141862Y55719D01*
X142022Y55881D01*
X142185Y56040D01*
X142353Y56194D01*
X142524Y56345D01*
X142698Y56491D01*
X142877Y56633D01*
X143058Y56771D01*
X143243Y56904D01*
X143431Y57032D01*
X143622Y57156D01*
X143817Y57275D01*
X144014Y57389D01*
X144213Y57499D01*
X144416Y57603D01*
X144621Y57703D01*
X144828Y57797D01*
X145037Y57887D01*
X145249Y57971D01*
X145463Y58050D01*
X145678Y58124D01*
X145895Y58193D01*
X146114Y58256D01*
X146335Y58314D01*
X146556Y58366D01*
X146779Y58413D01*
X147003Y58455D01*
X147228Y58491D01*
X147454Y58521D01*
X147680Y58546D01*
X147907Y58566D01*
X148135Y58580D01*
X148362Y58588D01*
X148590Y58591D01*
X148818Y58588D01*
X149045Y58580D01*
X149273Y58566D01*
X149500Y58546D01*
X149726Y58521D01*
X149952Y58491D01*
X150177Y58455D01*
X150401Y58413D01*
X150624Y58366D01*
X150845Y58314D01*
X151066Y58256D01*
X151285Y58193D01*
X151502Y58124D01*
X151717Y58050D01*
X151931Y57971D01*
X152143Y57887D01*
X152352Y57797D01*
X152559Y57703D01*
X152764Y57603D01*
X152967Y57499D01*
X153166Y57389D01*
X153363Y57275D01*
X153558Y57156D01*
X153749Y57032D01*
X153937Y56904D01*
X154122Y56771D01*
X154303Y56633D01*
X154482Y56491D01*
X154656Y56345D01*
X154827Y56194D01*
X154995Y56040D01*
X155158Y55881D01*
X155318Y55719D01*
X155473Y55552D01*
X155625Y55382D01*
X155772Y55208D01*
X155915Y55031D01*
X156053Y54850D01*
X156187Y54666D01*
X156317Y54478D01*
X156442Y54288D01*
X156562Y54094D01*
X156677Y53898D01*
X156788Y53699D01*
X156894Y53497D01*
X156994Y53293D01*
X157090Y53086D01*
X157181Y52877D01*
X157266Y52666D01*
X157347Y52453D01*
X157422Y52238D01*
X157491Y52021D01*
X157556Y51802D01*
X157615Y51582D01*
X157669Y51361D01*
X157717Y51138D01*
X157760Y50914D01*
X157797Y50690D01*
X157829Y50464D01*
X157855Y50238D01*
X157876Y50011D01*
X157891Y49784D01*
X157901Y49556D01*
X157905Y49328D01*
X157903Y49101D01*
X157896Y48873D01*
X157884Y48645D01*
X157865Y48418D01*
X157842Y48192D01*
X157812Y47966D01*
X157778Y47741D01*
X157737Y47517D01*
X157692Y47293D01*
X157640Y47071D01*
X157584Y46851D01*
X157522Y46632D01*
X157454Y46414D01*
X157382Y46198D01*
X157304Y45984D01*
X157221Y45772D01*
X157133Y45562D01*
X157039Y45354D01*
X156941Y45149D01*
X156837Y44946D01*
X156729Y44745D01*
X156616Y44548D01*
X156498Y44353D01*
X156375Y44161D01*
X156248Y43972D01*
X156116Y43786D01*
X155979Y43604D01*
X155838Y43425D01*
X155693Y43250D01*
X155543Y43078D01*
X155390Y42909D01*
X155232Y42745D01*
X155070Y42585D01*
X154905Y42428D01*
X154735Y42276D01*
X154562Y42128D01*
X154386Y41984D01*
X154206Y41844D01*
X154022Y41709D01*
X153836Y41578D01*
X153646Y41453D01*
X153453Y41331D01*
X153257Y41215D01*
X153059Y41103D01*
X152858Y40996D01*
X152654Y40894D01*
X166793Y37419D02*
X167055Y37867D01*
X167305Y38321D01*
X167545Y38781D01*
X167773Y39247D01*
X167989Y39718D01*
X168194Y40194D01*
X168387Y40675D01*
X168568Y41161D01*
X168738Y41651D01*
X168895Y42145D01*
X169040Y42643D01*
X169173Y43144D01*
X169293Y43648D01*
X169401Y44156D01*
X169259Y53595D02*
X169137Y54064D01*
X169004Y54530D01*
X168860Y54993D01*
X168706Y55452D01*
X168541Y55908D01*
X168366Y56360D01*
X168180Y56808D01*
X167985Y57251D01*
X167779Y57690D01*
X167563Y58124D01*
X167338Y58553D01*
X167102Y58977D01*
X166857Y59395D01*
X166603Y59808D01*
X159679Y66639D02*
X159242Y66895D01*
X158799Y67140D01*
X158350Y67375D01*
X157896Y67598D01*
X157437Y67811D01*
X156973Y68012D01*
X156504Y68203D01*
X156030Y68382D01*
X155553Y68550D01*
X155071Y68706D01*
X154586Y68851D01*
X154098Y68984D01*
X153606Y69105D01*
X143883Y69152D02*
X143408Y69037D01*
X142936Y68912D01*
X142467Y68776D01*
X142001Y68629D01*
X141539Y68472D01*
X141080Y68304D01*
X140625Y68126D01*
X140175Y67937D01*
X139729Y67737D01*
X139288Y67528D01*
X138851Y67309D01*
X138420Y67079D01*
X137994Y66840D01*
X137574Y66591D01*
X130839Y59903D02*
X130570Y59488D01*
X130311Y59065D01*
X130063Y58637D01*
X129825Y58203D01*
X129597Y57763D01*
X129380Y57318D01*
X129174Y56867D01*
X128978Y56412D01*
X128794Y55953D01*
X128621Y55489D01*
X128459Y55021D01*
X128308Y54549D01*
X128169Y54074D01*
X128041Y53595D01*
X127993Y44108D02*
X128087Y43631D01*
X128192Y43157D01*
X128309Y42685D01*
X128437Y42217D01*
X128576Y41751D01*
X128726Y41289D01*
X128887Y40830D01*
X129058Y40376D01*
X129241Y39925D01*
X129434Y39479D01*
X129637Y39038D01*
X129851Y38602D01*
X130075Y38171D01*
X130309Y37745D01*
X130554Y37325D01*
M02*
