G04 EAGLE Gerber RS-274X export*
G75*
%MOMM*%
%FSLAX34Y34*%
%LPD*%
%INSoldermask Top*%
%IPPOS*%
%AMOC8*
5,1,8,0,0,1.08239X$1,22.5*%
G01*
%ADD10C,3.101600*%
%ADD11R,0.701600X1.451600*%
%ADD12R,1.301600X2.101600*%
%ADD13R,1.371600X0.736600*%
%ADD14C,0.203200*%
%ADD15C,0.326897*%
%ADD16R,0.451600X0.901600*%
%ADD17R,0.901600X0.451600*%
%ADD18R,1.752600X1.752600*%
%ADD19C,1.752600*%


D10*
X30000Y30000D03*
X30000Y233200D03*
D11*
X91680Y52000D03*
X101680Y52000D03*
X111680Y52000D03*
X121680Y52000D03*
D12*
X134680Y15250D03*
X78680Y15250D03*
D11*
X175246Y52000D03*
X185246Y52000D03*
X195246Y52000D03*
X205246Y52000D03*
D12*
X218246Y15250D03*
X162246Y15250D03*
D13*
X217424Y116078D03*
X217424Y107950D03*
X217424Y99822D03*
D14*
X217424Y99060D02*
X217424Y116586D01*
D15*
X179341Y95995D02*
X172703Y95995D01*
X172703Y102633D01*
X179341Y102633D01*
X179341Y95995D01*
X179341Y99101D02*
X172703Y99101D01*
X172703Y102207D02*
X179341Y102207D01*
X187943Y95995D02*
X194581Y95995D01*
X187943Y95995D02*
X187943Y102633D01*
X194581Y102633D01*
X194581Y95995D01*
X194581Y99101D02*
X187943Y99101D01*
X187943Y102207D02*
X194581Y102207D01*
X179341Y112759D02*
X172703Y112759D01*
X172703Y119397D01*
X179341Y119397D01*
X179341Y112759D01*
X179341Y115865D02*
X172703Y115865D01*
X172703Y118971D02*
X179341Y118971D01*
X187943Y112759D02*
X194581Y112759D01*
X187943Y112759D02*
X187943Y119397D01*
X194581Y119397D01*
X194581Y112759D01*
X194581Y115865D02*
X187943Y115865D01*
X187943Y118971D02*
X194581Y118971D01*
D16*
X148340Y169554D03*
X142240Y169554D03*
X136140Y169554D03*
D17*
X132040Y180924D03*
X132040Y187274D03*
X132040Y193624D03*
X132040Y199974D03*
D16*
X136140Y211354D03*
X142240Y211354D03*
X148340Y211354D03*
D17*
X152440Y200279D03*
X152440Y193929D03*
X152440Y187579D03*
D15*
X190483Y214359D02*
X190483Y220997D01*
X197121Y220997D01*
X197121Y214359D01*
X190483Y214359D01*
X190483Y217465D02*
X197121Y217465D01*
X197121Y220571D02*
X190483Y220571D01*
X190483Y205757D02*
X190483Y199119D01*
X190483Y205757D02*
X197121Y205757D01*
X197121Y199119D01*
X190483Y199119D01*
X190483Y202225D02*
X197121Y202225D01*
X197121Y205331D02*
X190483Y205331D01*
X175497Y214359D02*
X175497Y220997D01*
X182135Y220997D01*
X182135Y214359D01*
X175497Y214359D01*
X175497Y217465D02*
X182135Y217465D01*
X182135Y220571D02*
X175497Y220571D01*
X175497Y205757D02*
X175497Y199119D01*
X175497Y205757D02*
X182135Y205757D01*
X182135Y199119D01*
X175497Y199119D01*
X175497Y202225D02*
X182135Y202225D01*
X182135Y205331D02*
X175497Y205331D01*
X182135Y175023D02*
X182135Y168385D01*
X175497Y168385D01*
X175497Y175023D01*
X182135Y175023D01*
X182135Y171491D02*
X175497Y171491D01*
X175497Y174597D02*
X182135Y174597D01*
X182135Y183625D02*
X182135Y190263D01*
X182135Y183625D02*
X175497Y183625D01*
X175497Y190263D01*
X182135Y190263D01*
X182135Y186731D02*
X175497Y186731D01*
X175497Y189837D02*
X182135Y189837D01*
X129777Y143527D02*
X129777Y136889D01*
X129777Y143527D02*
X136415Y143527D01*
X136415Y136889D01*
X129777Y136889D01*
X129777Y139995D02*
X136415Y139995D01*
X136415Y143101D02*
X129777Y143101D01*
X129777Y128287D02*
X129777Y121649D01*
X129777Y128287D02*
X136415Y128287D01*
X136415Y121649D01*
X129777Y121649D01*
X129777Y124755D02*
X136415Y124755D01*
X136415Y127861D02*
X129777Y127861D01*
D18*
X15000Y80800D03*
D19*
X15000Y106200D03*
X15000Y131600D03*
X15000Y157000D03*
X15000Y182400D03*
D15*
X153653Y147811D02*
X160291Y147811D01*
X153653Y147811D02*
X153653Y154449D01*
X160291Y154449D01*
X160291Y147811D01*
X160291Y150917D02*
X153653Y150917D01*
X153653Y154023D02*
X160291Y154023D01*
X168893Y147811D02*
X175531Y147811D01*
X168893Y147811D02*
X168893Y154449D01*
X175531Y154449D01*
X175531Y147811D01*
X175531Y150917D02*
X168893Y150917D01*
X168893Y154023D02*
X175531Y154023D01*
M02*
