G04 EAGLE Gerber RS-274X export*
G75*
%MOMM*%
%FSLAX34Y34*%
%LPD*%
%INSolderpaste Top*%
%IPPOS*%
%AMOC8*
5,1,8,0,0,1.08239X$1,22.5*%
G01*
%ADD10R,0.600000X1.350000*%
%ADD11R,1.200000X2.000000*%
%ADD12C,0.222250*%
%ADD13R,0.350000X0.800000*%
%ADD14R,0.800000X0.350000*%


D10*
X91680Y52000D03*
X101680Y52000D03*
X111680Y52000D03*
X121680Y52000D03*
D11*
X134680Y15250D03*
X78680Y15250D03*
D10*
X175246Y52000D03*
X185246Y52000D03*
X195246Y52000D03*
X205246Y52000D03*
D11*
X218246Y15250D03*
X162246Y15250D03*
D12*
X172688Y95980D02*
X179356Y95980D01*
X172688Y95980D02*
X172688Y102648D01*
X179356Y102648D01*
X179356Y95980D01*
X179356Y98092D02*
X172688Y98092D01*
X172688Y100204D02*
X179356Y100204D01*
X179356Y102316D02*
X172688Y102316D01*
X187928Y95980D02*
X194596Y95980D01*
X187928Y95980D02*
X187928Y102648D01*
X194596Y102648D01*
X194596Y95980D01*
X194596Y98092D02*
X187928Y98092D01*
X187928Y100204D02*
X194596Y100204D01*
X194596Y102316D02*
X187928Y102316D01*
X179356Y112744D02*
X172688Y112744D01*
X172688Y119412D01*
X179356Y119412D01*
X179356Y112744D01*
X179356Y114856D02*
X172688Y114856D01*
X172688Y116968D02*
X179356Y116968D01*
X179356Y119080D02*
X172688Y119080D01*
X187928Y112744D02*
X194596Y112744D01*
X187928Y112744D02*
X187928Y119412D01*
X194596Y119412D01*
X194596Y112744D01*
X194596Y114856D02*
X187928Y114856D01*
X187928Y116968D02*
X194596Y116968D01*
X194596Y119080D02*
X187928Y119080D01*
D13*
X148340Y169554D03*
X142240Y169554D03*
X136140Y169554D03*
D14*
X132040Y180924D03*
X132040Y187274D03*
X132040Y193624D03*
X132040Y199974D03*
D13*
X136140Y211354D03*
X142240Y211354D03*
X148340Y211354D03*
D14*
X152440Y200279D03*
X152440Y193929D03*
X152440Y187579D03*
D12*
X190468Y214344D02*
X190468Y221012D01*
X197136Y221012D01*
X197136Y214344D01*
X190468Y214344D01*
X190468Y216456D02*
X197136Y216456D01*
X197136Y218568D02*
X190468Y218568D01*
X190468Y220680D02*
X197136Y220680D01*
X190468Y205772D02*
X190468Y199104D01*
X190468Y205772D02*
X197136Y205772D01*
X197136Y199104D01*
X190468Y199104D01*
X190468Y201216D02*
X197136Y201216D01*
X197136Y203328D02*
X190468Y203328D01*
X190468Y205440D02*
X197136Y205440D01*
X175482Y214344D02*
X175482Y221012D01*
X182150Y221012D01*
X182150Y214344D01*
X175482Y214344D01*
X175482Y216456D02*
X182150Y216456D01*
X182150Y218568D02*
X175482Y218568D01*
X175482Y220680D02*
X182150Y220680D01*
X175482Y205772D02*
X175482Y199104D01*
X175482Y205772D02*
X182150Y205772D01*
X182150Y199104D01*
X175482Y199104D01*
X175482Y201216D02*
X182150Y201216D01*
X182150Y203328D02*
X175482Y203328D01*
X175482Y205440D02*
X182150Y205440D01*
X182150Y175038D02*
X182150Y168370D01*
X175482Y168370D01*
X175482Y175038D01*
X182150Y175038D01*
X182150Y170482D02*
X175482Y170482D01*
X175482Y172594D02*
X182150Y172594D01*
X182150Y174706D02*
X175482Y174706D01*
X182150Y183610D02*
X182150Y190278D01*
X182150Y183610D02*
X175482Y183610D01*
X175482Y190278D01*
X182150Y190278D01*
X182150Y185722D02*
X175482Y185722D01*
X175482Y187834D02*
X182150Y187834D01*
X182150Y189946D02*
X175482Y189946D01*
X129762Y143542D02*
X129762Y136874D01*
X129762Y143542D02*
X136430Y143542D01*
X136430Y136874D01*
X129762Y136874D01*
X129762Y138986D02*
X136430Y138986D01*
X136430Y141098D02*
X129762Y141098D01*
X129762Y143210D02*
X136430Y143210D01*
X129762Y128302D02*
X129762Y121634D01*
X129762Y128302D02*
X136430Y128302D01*
X136430Y121634D01*
X129762Y121634D01*
X129762Y123746D02*
X136430Y123746D01*
X136430Y125858D02*
X129762Y125858D01*
X129762Y127970D02*
X136430Y127970D01*
X153638Y147796D02*
X160306Y147796D01*
X153638Y147796D02*
X153638Y154464D01*
X160306Y154464D01*
X160306Y147796D01*
X160306Y149908D02*
X153638Y149908D01*
X153638Y152020D02*
X160306Y152020D01*
X160306Y154132D02*
X153638Y154132D01*
X168878Y147796D02*
X175546Y147796D01*
X168878Y147796D02*
X168878Y154464D01*
X175546Y154464D01*
X175546Y147796D01*
X175546Y149908D02*
X168878Y149908D01*
X168878Y152020D02*
X175546Y152020D01*
X175546Y154132D02*
X168878Y154132D01*
M02*
