G04 EAGLE Gerber RS-274X export*
G75*
%MOMM*%
%FSLAX34Y34*%
%LPD*%
%INTop Copper*%
%IPPOS*%
%AMOC8*
5,1,8,0,0,1.08239X$1,22.5*%
G01*
%ADD10R,0.600000X1.350000*%
%ADD11R,1.200000X2.000000*%
%ADD12R,1.270000X0.635000*%
%ADD13C,0.203200*%
%ADD14C,0.222250*%
%ADD15R,0.350000X0.800000*%
%ADD16R,0.800000X0.350000*%
%ADD17R,1.651000X1.651000*%
%ADD18C,1.651000*%
%ADD19C,0.609600*%
%ADD20C,0.381000*%

G36*
X69353Y5223D02*
X69353Y5223D01*
X69455Y5231D01*
X69483Y5243D01*
X69514Y5248D01*
X69606Y5292D01*
X69702Y5330D01*
X69725Y5350D01*
X69753Y5363D01*
X69828Y5433D01*
X69908Y5498D01*
X69925Y5524D01*
X69947Y5545D01*
X69998Y5634D01*
X70055Y5719D01*
X70061Y5743D01*
X70079Y5775D01*
X70137Y6035D01*
X70134Y6073D01*
X70139Y6096D01*
X70139Y13473D01*
X77791Y13473D01*
X77892Y13488D01*
X77995Y13497D01*
X78023Y13508D01*
X78054Y13513D01*
X78146Y13557D01*
X78241Y13596D01*
X78265Y13615D01*
X78293Y13628D01*
X78368Y13698D01*
X78448Y13763D01*
X78465Y13789D01*
X78487Y13810D01*
X78538Y13899D01*
X78595Y13984D01*
X78600Y14008D01*
X78619Y14040D01*
X78677Y14300D01*
X78674Y14338D01*
X78679Y14361D01*
X78679Y15251D01*
X78681Y15251D01*
X78681Y14361D01*
X78696Y14260D01*
X78705Y14157D01*
X78716Y14129D01*
X78721Y14098D01*
X78765Y14006D01*
X78804Y13911D01*
X78823Y13887D01*
X78836Y13859D01*
X78906Y13784D01*
X78971Y13704D01*
X78997Y13687D01*
X79018Y13665D01*
X79107Y13614D01*
X79192Y13557D01*
X79216Y13551D01*
X79249Y13533D01*
X79508Y13475D01*
X79546Y13478D01*
X79569Y13473D01*
X87221Y13473D01*
X87221Y6096D01*
X87236Y5994D01*
X87244Y5892D01*
X87256Y5864D01*
X87261Y5833D01*
X87305Y5741D01*
X87343Y5645D01*
X87363Y5622D01*
X87376Y5594D01*
X87446Y5519D01*
X87511Y5439D01*
X87537Y5422D01*
X87558Y5400D01*
X87647Y5349D01*
X87732Y5292D01*
X87756Y5286D01*
X87788Y5268D01*
X88048Y5210D01*
X88086Y5213D01*
X88109Y5208D01*
X125251Y5208D01*
X125353Y5223D01*
X125455Y5231D01*
X125483Y5243D01*
X125514Y5248D01*
X125606Y5292D01*
X125702Y5330D01*
X125725Y5350D01*
X125753Y5363D01*
X125828Y5433D01*
X125908Y5498D01*
X125925Y5524D01*
X125947Y5545D01*
X125998Y5634D01*
X126055Y5719D01*
X126061Y5743D01*
X126079Y5775D01*
X126137Y6035D01*
X126134Y6073D01*
X126139Y6096D01*
X126139Y13473D01*
X133791Y13473D01*
X133892Y13488D01*
X133995Y13497D01*
X134023Y13508D01*
X134054Y13513D01*
X134146Y13557D01*
X134241Y13596D01*
X134265Y13615D01*
X134293Y13628D01*
X134368Y13698D01*
X134448Y13763D01*
X134465Y13789D01*
X134487Y13810D01*
X134538Y13899D01*
X134595Y13984D01*
X134600Y14008D01*
X134619Y14040D01*
X134677Y14300D01*
X134674Y14338D01*
X134679Y14361D01*
X134679Y15251D01*
X134681Y15251D01*
X134681Y14361D01*
X134696Y14260D01*
X134705Y14157D01*
X134716Y14129D01*
X134721Y14098D01*
X134765Y14006D01*
X134804Y13911D01*
X134823Y13887D01*
X134836Y13859D01*
X134906Y13784D01*
X134971Y13704D01*
X134997Y13687D01*
X135018Y13665D01*
X135107Y13614D01*
X135192Y13557D01*
X135216Y13551D01*
X135249Y13533D01*
X135508Y13475D01*
X135546Y13478D01*
X135569Y13473D01*
X143221Y13473D01*
X143221Y6096D01*
X143236Y5994D01*
X143244Y5892D01*
X143256Y5864D01*
X143261Y5833D01*
X143305Y5741D01*
X143343Y5645D01*
X143363Y5622D01*
X143376Y5594D01*
X143446Y5519D01*
X143511Y5439D01*
X143537Y5422D01*
X143558Y5400D01*
X143647Y5349D01*
X143732Y5292D01*
X143756Y5286D01*
X143788Y5268D01*
X144048Y5210D01*
X144086Y5213D01*
X144109Y5208D01*
X152817Y5208D01*
X152919Y5223D01*
X153021Y5231D01*
X153049Y5243D01*
X153080Y5248D01*
X153172Y5292D01*
X153268Y5330D01*
X153291Y5350D01*
X153319Y5363D01*
X153394Y5433D01*
X153474Y5498D01*
X153491Y5524D01*
X153513Y5545D01*
X153564Y5634D01*
X153621Y5719D01*
X153627Y5743D01*
X153645Y5775D01*
X153703Y6035D01*
X153700Y6073D01*
X153705Y6096D01*
X153705Y13473D01*
X161357Y13473D01*
X161458Y13488D01*
X161561Y13497D01*
X161589Y13508D01*
X161620Y13513D01*
X161712Y13557D01*
X161807Y13596D01*
X161831Y13615D01*
X161859Y13628D01*
X161934Y13698D01*
X162014Y13763D01*
X162031Y13789D01*
X162053Y13810D01*
X162104Y13899D01*
X162161Y13984D01*
X162166Y14008D01*
X162185Y14040D01*
X162243Y14300D01*
X162240Y14338D01*
X162245Y14361D01*
X162245Y15251D01*
X162247Y15251D01*
X162247Y14361D01*
X162262Y14260D01*
X162271Y14157D01*
X162282Y14129D01*
X162287Y14098D01*
X162331Y14006D01*
X162370Y13911D01*
X162389Y13887D01*
X162402Y13859D01*
X162472Y13784D01*
X162537Y13704D01*
X162563Y13687D01*
X162584Y13665D01*
X162673Y13614D01*
X162758Y13557D01*
X162782Y13551D01*
X162815Y13533D01*
X163074Y13475D01*
X163112Y13478D01*
X163135Y13473D01*
X170787Y13473D01*
X170787Y6096D01*
X170802Y5994D01*
X170810Y5892D01*
X170822Y5864D01*
X170827Y5833D01*
X170871Y5741D01*
X170909Y5645D01*
X170929Y5622D01*
X170942Y5594D01*
X171012Y5519D01*
X171077Y5439D01*
X171103Y5422D01*
X171124Y5400D01*
X171213Y5349D01*
X171298Y5292D01*
X171322Y5286D01*
X171354Y5268D01*
X171614Y5210D01*
X171652Y5213D01*
X171675Y5208D01*
X208817Y5208D01*
X208919Y5223D01*
X209021Y5231D01*
X209049Y5243D01*
X209080Y5248D01*
X209172Y5292D01*
X209268Y5330D01*
X209291Y5350D01*
X209319Y5363D01*
X209394Y5433D01*
X209474Y5498D01*
X209491Y5524D01*
X209513Y5545D01*
X209564Y5634D01*
X209621Y5719D01*
X209627Y5743D01*
X209645Y5775D01*
X209703Y6035D01*
X209700Y6073D01*
X209705Y6096D01*
X209705Y13473D01*
X217357Y13473D01*
X217458Y13488D01*
X217561Y13497D01*
X217589Y13508D01*
X217620Y13513D01*
X217712Y13557D01*
X217807Y13596D01*
X217831Y13615D01*
X217859Y13628D01*
X217934Y13698D01*
X218014Y13763D01*
X218031Y13789D01*
X218053Y13810D01*
X218104Y13899D01*
X218161Y13984D01*
X218166Y14008D01*
X218185Y14040D01*
X218243Y14300D01*
X218240Y14338D01*
X218245Y14361D01*
X218245Y15251D01*
X219135Y15251D01*
X219236Y15266D01*
X219339Y15275D01*
X219367Y15286D01*
X219398Y15291D01*
X219490Y15335D01*
X219585Y15374D01*
X219609Y15393D01*
X219637Y15406D01*
X219712Y15476D01*
X219792Y15541D01*
X219809Y15567D01*
X219831Y15588D01*
X219882Y15677D01*
X219939Y15762D01*
X219944Y15786D01*
X219963Y15819D01*
X220021Y16078D01*
X220018Y16116D01*
X220023Y16139D01*
X220023Y27791D01*
X223904Y27791D01*
X224006Y27806D01*
X224108Y27814D01*
X224136Y27826D01*
X224167Y27831D01*
X224259Y27875D01*
X224355Y27913D01*
X224378Y27933D01*
X224406Y27946D01*
X224481Y28016D01*
X224561Y28081D01*
X224578Y28107D01*
X224600Y28128D01*
X224651Y28217D01*
X224708Y28302D01*
X224714Y28326D01*
X224732Y28358D01*
X224790Y28618D01*
X224787Y28656D01*
X224792Y28679D01*
X224792Y93980D01*
X224777Y94082D01*
X224769Y94184D01*
X224757Y94212D01*
X224752Y94243D01*
X224708Y94335D01*
X224670Y94431D01*
X224650Y94454D01*
X224637Y94482D01*
X224567Y94557D01*
X224502Y94637D01*
X224476Y94654D01*
X224455Y94676D01*
X224366Y94727D01*
X224281Y94784D01*
X224257Y94790D01*
X224225Y94808D01*
X223965Y94866D01*
X223927Y94863D01*
X223904Y94868D01*
X210337Y94868D01*
X209295Y95910D01*
X209295Y96139D01*
X209280Y96241D01*
X209272Y96343D01*
X209260Y96371D01*
X209255Y96402D01*
X209211Y96494D01*
X209173Y96590D01*
X209153Y96613D01*
X209140Y96641D01*
X209070Y96716D01*
X209005Y96796D01*
X208979Y96813D01*
X208958Y96835D01*
X208869Y96886D01*
X208784Y96943D01*
X208760Y96949D01*
X208728Y96967D01*
X208468Y97025D01*
X208430Y97022D01*
X208407Y97027D01*
X198374Y97027D01*
X198272Y97012D01*
X198170Y97004D01*
X198142Y96992D01*
X198111Y96987D01*
X198019Y96943D01*
X197923Y96905D01*
X197900Y96885D01*
X197872Y96872D01*
X197797Y96802D01*
X197717Y96737D01*
X197700Y96711D01*
X197678Y96690D01*
X197627Y96601D01*
X197570Y96516D01*
X197564Y96492D01*
X197546Y96460D01*
X197488Y96200D01*
X197491Y96162D01*
X197486Y96139D01*
X197486Y94783D01*
X195793Y93090D01*
X186731Y93090D01*
X185038Y94783D01*
X185038Y103845D01*
X186731Y105538D01*
X195793Y105538D01*
X196603Y104728D01*
X196644Y104697D01*
X196680Y104659D01*
X196751Y104619D01*
X196817Y104570D01*
X196866Y104553D01*
X196910Y104527D01*
X196990Y104510D01*
X197068Y104483D01*
X197120Y104481D01*
X197170Y104470D01*
X197252Y104476D01*
X197334Y104473D01*
X197383Y104487D01*
X197435Y104491D01*
X197511Y104522D01*
X197590Y104543D01*
X197634Y104571D01*
X197682Y104590D01*
X197745Y104642D01*
X197814Y104686D01*
X197848Y104725D01*
X197888Y104758D01*
X197933Y104826D01*
X197986Y104889D01*
X198007Y104936D01*
X198035Y104979D01*
X198047Y105029D01*
X198091Y105133D01*
X198109Y105311D01*
X198119Y105356D01*
X198119Y110036D01*
X198112Y110087D01*
X198113Y110139D01*
X198098Y110195D01*
X198096Y110225D01*
X198088Y110245D01*
X198079Y110299D01*
X198057Y110346D01*
X198043Y110395D01*
X197999Y110465D01*
X197997Y110472D01*
X197995Y110474D01*
X197964Y110538D01*
X197929Y110576D01*
X197901Y110620D01*
X197838Y110673D01*
X197782Y110733D01*
X197738Y110758D01*
X197698Y110792D01*
X197623Y110824D01*
X197552Y110865D01*
X197501Y110876D01*
X197454Y110896D01*
X197372Y110905D01*
X197292Y110922D01*
X197241Y110918D01*
X197189Y110924D01*
X197109Y110907D01*
X197027Y110901D01*
X196979Y110882D01*
X196929Y110872D01*
X196885Y110844D01*
X196780Y110802D01*
X196733Y110763D01*
X196714Y110754D01*
X196662Y110706D01*
X196641Y110689D01*
X196603Y110664D01*
X195793Y109854D01*
X186731Y109854D01*
X185038Y111547D01*
X185038Y120609D01*
X186731Y122302D01*
X195793Y122302D01*
X197486Y120609D01*
X197486Y119761D01*
X197501Y119659D01*
X197509Y119557D01*
X197521Y119529D01*
X197526Y119498D01*
X197570Y119406D01*
X197608Y119310D01*
X197628Y119287D01*
X197641Y119259D01*
X197711Y119184D01*
X197776Y119104D01*
X197802Y119087D01*
X197823Y119065D01*
X197912Y119014D01*
X197997Y118957D01*
X198021Y118951D01*
X198053Y118933D01*
X198313Y118875D01*
X198351Y118878D01*
X198374Y118873D01*
X208407Y118873D01*
X208509Y118888D01*
X208611Y118896D01*
X208639Y118908D01*
X208670Y118913D01*
X208762Y118957D01*
X208858Y118995D01*
X208881Y119015D01*
X208909Y119028D01*
X208984Y119098D01*
X209064Y119163D01*
X209081Y119189D01*
X209103Y119210D01*
X209154Y119299D01*
X209211Y119384D01*
X209217Y119408D01*
X209235Y119440D01*
X209293Y119700D01*
X209291Y119723D01*
X209293Y119731D01*
X209292Y119746D01*
X209295Y119761D01*
X209295Y119990D01*
X210337Y121032D01*
X223904Y121032D01*
X224006Y121047D01*
X224108Y121055D01*
X224136Y121067D01*
X224167Y121072D01*
X224259Y121116D01*
X224355Y121154D01*
X224378Y121174D01*
X224406Y121187D01*
X224481Y121257D01*
X224561Y121322D01*
X224578Y121348D01*
X224600Y121369D01*
X224651Y121458D01*
X224708Y121543D01*
X224714Y121567D01*
X224732Y121599D01*
X224790Y121859D01*
X224787Y121897D01*
X224792Y121920D01*
X224792Y257104D01*
X224777Y257206D01*
X224769Y257308D01*
X224757Y257336D01*
X224752Y257367D01*
X224708Y257459D01*
X224670Y257555D01*
X224650Y257578D01*
X224637Y257606D01*
X224567Y257681D01*
X224502Y257761D01*
X224476Y257778D01*
X224455Y257800D01*
X224366Y257851D01*
X224281Y257908D01*
X224257Y257914D01*
X224225Y257932D01*
X223965Y257990D01*
X223927Y257987D01*
X223904Y257992D01*
X48343Y257992D01*
X48254Y257979D01*
X48164Y257974D01*
X48123Y257959D01*
X48081Y257952D01*
X48000Y257913D01*
X47915Y257882D01*
X47880Y257856D01*
X47841Y257837D01*
X47775Y257775D01*
X47704Y257720D01*
X47679Y257685D01*
X47647Y257655D01*
X47602Y257577D01*
X47550Y257504D01*
X47537Y257462D01*
X47515Y257425D01*
X47495Y257337D01*
X47467Y257251D01*
X47467Y257208D01*
X47457Y257165D01*
X47465Y257075D01*
X47463Y256985D01*
X47475Y256943D01*
X47479Y256900D01*
X47512Y256817D01*
X47538Y256730D01*
X47557Y256704D01*
X47578Y256653D01*
X47745Y256447D01*
X47764Y256435D01*
X47772Y256424D01*
X52725Y252268D01*
X57876Y243346D01*
X59665Y233200D01*
X57876Y223054D01*
X52725Y214132D01*
X44832Y207510D01*
X35151Y203986D01*
X24849Y203986D01*
X15168Y207510D01*
X7275Y214132D01*
X6865Y214842D01*
X6844Y214869D01*
X6829Y214900D01*
X6761Y214973D01*
X6699Y215050D01*
X6671Y215069D01*
X6647Y215095D01*
X6561Y215144D01*
X6479Y215199D01*
X6446Y215209D01*
X6417Y215226D01*
X6320Y215248D01*
X6225Y215277D01*
X6191Y215277D01*
X6157Y215284D01*
X6058Y215276D01*
X5959Y215276D01*
X5926Y215265D01*
X5892Y215263D01*
X5800Y215226D01*
X5706Y215196D01*
X5678Y215177D01*
X5645Y215164D01*
X5569Y215101D01*
X5487Y215045D01*
X5466Y215018D01*
X5439Y214996D01*
X5384Y214913D01*
X5323Y214836D01*
X5311Y214804D01*
X5292Y214775D01*
X5280Y214724D01*
X5228Y214588D01*
X5219Y214450D01*
X5208Y214398D01*
X5208Y190020D01*
X5215Y189969D01*
X5214Y189917D01*
X5235Y189838D01*
X5248Y189757D01*
X5270Y189710D01*
X5284Y189661D01*
X5328Y189591D01*
X5363Y189517D01*
X5398Y189480D01*
X5426Y189436D01*
X5489Y189383D01*
X5545Y189323D01*
X5589Y189298D01*
X5629Y189264D01*
X5704Y189232D01*
X5775Y189191D01*
X5826Y189180D01*
X5873Y189160D01*
X5955Y189151D01*
X6035Y189133D01*
X6086Y189138D01*
X6138Y189132D01*
X6218Y189148D01*
X6300Y189155D01*
X6348Y189174D01*
X6398Y189184D01*
X6442Y189212D01*
X6547Y189254D01*
X6686Y189367D01*
X6724Y189392D01*
X7967Y190635D01*
X9342Y191633D01*
X10856Y192405D01*
X12472Y192930D01*
X13223Y193049D01*
X13223Y183289D01*
X13238Y183188D01*
X13246Y183085D01*
X13258Y183057D01*
X13263Y183026D01*
X13307Y182934D01*
X13345Y182839D01*
X13365Y182815D01*
X13378Y182787D01*
X13448Y182712D01*
X13513Y182632D01*
X13539Y182615D01*
X13560Y182593D01*
X13649Y182542D01*
X13734Y182485D01*
X13758Y182480D01*
X13790Y182461D01*
X14050Y182403D01*
X14088Y182406D01*
X14111Y182401D01*
X15001Y182401D01*
X15001Y182399D01*
X14111Y182399D01*
X14009Y182384D01*
X13907Y182375D01*
X13879Y182364D01*
X13848Y182359D01*
X13756Y182315D01*
X13660Y182276D01*
X13637Y182257D01*
X13609Y182244D01*
X13534Y182174D01*
X13454Y182109D01*
X13437Y182083D01*
X13415Y182062D01*
X13364Y181973D01*
X13307Y181888D01*
X13301Y181864D01*
X13283Y181831D01*
X13225Y181572D01*
X13228Y181534D01*
X13223Y181511D01*
X13223Y171751D01*
X12472Y171870D01*
X10856Y172395D01*
X9342Y173167D01*
X7967Y174165D01*
X6724Y175408D01*
X6683Y175439D01*
X6647Y175477D01*
X6576Y175518D01*
X6510Y175566D01*
X6461Y175583D01*
X6417Y175609D01*
X6337Y175627D01*
X6259Y175654D01*
X6207Y175655D01*
X6157Y175667D01*
X6075Y175660D01*
X5993Y175663D01*
X5944Y175649D01*
X5892Y175645D01*
X5816Y175614D01*
X5737Y175593D01*
X5693Y175565D01*
X5645Y175546D01*
X5582Y175494D01*
X5513Y175450D01*
X5479Y175411D01*
X5439Y175378D01*
X5394Y175310D01*
X5341Y175248D01*
X5320Y175200D01*
X5292Y175157D01*
X5280Y175107D01*
X5236Y175003D01*
X5218Y174825D01*
X5208Y174780D01*
X5208Y163542D01*
X5215Y163491D01*
X5214Y163439D01*
X5235Y163360D01*
X5248Y163279D01*
X5270Y163233D01*
X5284Y163183D01*
X5328Y163114D01*
X5363Y163040D01*
X5398Y163002D01*
X5426Y162959D01*
X5489Y162905D01*
X5545Y162846D01*
X5589Y162820D01*
X5629Y162787D01*
X5704Y162754D01*
X5775Y162714D01*
X5826Y162702D01*
X5873Y162682D01*
X5955Y162674D01*
X6035Y162656D01*
X6086Y162660D01*
X6138Y162655D01*
X6218Y162671D01*
X6300Y162677D01*
X6348Y162697D01*
X6398Y162707D01*
X6442Y162734D01*
X6547Y162776D01*
X6686Y162889D01*
X6724Y162914D01*
X9316Y165506D01*
X13004Y167034D01*
X16996Y167034D01*
X20684Y165506D01*
X23506Y162684D01*
X25034Y158996D01*
X25034Y155004D01*
X24432Y153553D01*
X24418Y153492D01*
X24393Y153435D01*
X24386Y153364D01*
X24369Y153295D01*
X24372Y153233D01*
X24366Y153171D01*
X24380Y153101D01*
X24384Y153029D01*
X24406Y152971D01*
X24418Y152910D01*
X24444Y152870D01*
X24477Y152780D01*
X24608Y152611D01*
X24625Y152585D01*
X48298Y128912D01*
X48304Y128907D01*
X48305Y128906D01*
X48313Y128900D01*
X48315Y128899D01*
X48328Y128883D01*
X48421Y128821D01*
X48512Y128754D01*
X48531Y128747D01*
X48549Y128736D01*
X48594Y128726D01*
X48763Y128667D01*
X48875Y128663D01*
X48926Y128652D01*
X125984Y128652D01*
X126086Y128667D01*
X126188Y128675D01*
X126216Y128687D01*
X126247Y128692D01*
X126339Y128736D01*
X126435Y128774D01*
X126458Y128794D01*
X126486Y128807D01*
X126561Y128877D01*
X126641Y128942D01*
X126658Y128968D01*
X126680Y128989D01*
X126731Y129078D01*
X126788Y129163D01*
X126794Y129187D01*
X126812Y129219D01*
X126870Y129479D01*
X126869Y129495D01*
X128565Y131192D01*
X137627Y131192D01*
X139327Y129491D01*
X139335Y129438D01*
X139343Y129336D01*
X139355Y129308D01*
X139360Y129277D01*
X139404Y129185D01*
X139442Y129089D01*
X139462Y129066D01*
X139475Y129038D01*
X139545Y128963D01*
X139610Y128883D01*
X139636Y128866D01*
X139657Y128844D01*
X139746Y128793D01*
X139831Y128736D01*
X139855Y128730D01*
X139887Y128712D01*
X140147Y128654D01*
X140185Y128657D01*
X140208Y128652D01*
X144318Y128652D01*
X144338Y128655D01*
X144359Y128653D01*
X144470Y128675D01*
X144581Y128692D01*
X144599Y128701D01*
X144620Y128705D01*
X144659Y128729D01*
X144820Y128807D01*
X144902Y128884D01*
X144946Y128912D01*
X145975Y129941D01*
X146036Y130023D01*
X146102Y130102D01*
X146114Y130130D01*
X146132Y130155D01*
X146166Y130252D01*
X146206Y130346D01*
X146210Y130377D01*
X146220Y130406D01*
X146223Y130508D01*
X146234Y130610D01*
X146228Y130641D01*
X146229Y130671D01*
X146202Y130770D01*
X146182Y130871D01*
X146169Y130891D01*
X146159Y130928D01*
X146016Y131152D01*
X145987Y131177D01*
X145975Y131197D01*
X140836Y136335D01*
X140795Y136366D01*
X140759Y136404D01*
X140688Y136444D01*
X140622Y136493D01*
X140573Y136510D01*
X140529Y136536D01*
X140449Y136554D01*
X140371Y136580D01*
X140319Y136582D01*
X140269Y136593D01*
X140187Y136587D01*
X140105Y136590D01*
X140056Y136576D01*
X140004Y136572D01*
X139928Y136541D01*
X139849Y136520D01*
X139805Y136492D01*
X139757Y136473D01*
X139694Y136421D01*
X139625Y136377D01*
X139591Y136338D01*
X139551Y136305D01*
X139506Y136237D01*
X139453Y136175D01*
X139432Y136127D01*
X139404Y136084D01*
X139392Y136034D01*
X139348Y135930D01*
X139330Y135752D01*
X139320Y135707D01*
X139320Y135677D01*
X137627Y133984D01*
X128565Y133984D01*
X126872Y135677D01*
X126872Y136190D01*
X126865Y136241D01*
X126866Y136292D01*
X126845Y136372D01*
X126832Y136453D01*
X126810Y136499D01*
X126796Y136549D01*
X126752Y136618D01*
X126717Y136692D01*
X126682Y136730D01*
X126654Y136773D01*
X126591Y136826D01*
X126535Y136886D01*
X126491Y136912D01*
X126451Y136945D01*
X126376Y136978D01*
X126305Y137018D01*
X126254Y137029D01*
X126207Y137050D01*
X126125Y137058D01*
X126045Y137076D01*
X125994Y137072D01*
X125942Y137077D01*
X125862Y137061D01*
X125780Y137054D01*
X125732Y137035D01*
X125682Y137025D01*
X125638Y136997D01*
X125533Y136955D01*
X125394Y136842D01*
X125356Y136818D01*
X123919Y135381D01*
X119921Y135381D01*
X117093Y138209D01*
X117093Y142207D01*
X119921Y145035D01*
X123919Y145035D01*
X125356Y143598D01*
X125397Y143567D01*
X125433Y143530D01*
X125504Y143489D01*
X125570Y143440D01*
X125619Y143423D01*
X125663Y143398D01*
X125743Y143380D01*
X125821Y143353D01*
X125873Y143351D01*
X125923Y143340D01*
X126005Y143347D01*
X126087Y143344D01*
X126136Y143357D01*
X126188Y143362D01*
X126264Y143392D01*
X126343Y143414D01*
X126387Y143441D01*
X126435Y143461D01*
X126498Y143512D01*
X126567Y143556D01*
X126601Y143596D01*
X126641Y143628D01*
X126686Y143697D01*
X126739Y143759D01*
X126760Y143806D01*
X126788Y143849D01*
X126800Y143900D01*
X126844Y144003D01*
X126862Y144182D01*
X126872Y144226D01*
X126872Y144739D01*
X128565Y146432D01*
X132457Y146432D01*
X132559Y146447D01*
X132661Y146455D01*
X132689Y146467D01*
X132720Y146472D01*
X132812Y146516D01*
X132908Y146554D01*
X132931Y146574D01*
X132959Y146587D01*
X133034Y146657D01*
X133114Y146722D01*
X133131Y146748D01*
X133153Y146769D01*
X133204Y146858D01*
X133261Y146943D01*
X133267Y146967D01*
X133285Y146999D01*
X133343Y147259D01*
X133343Y147265D01*
X133343Y147267D01*
X133341Y147299D01*
X133345Y147320D01*
X133345Y163715D01*
X133342Y163736D01*
X133344Y163757D01*
X133322Y163867D01*
X133305Y163978D01*
X133296Y163997D01*
X133292Y164018D01*
X133268Y164056D01*
X133190Y164217D01*
X133113Y164300D01*
X133085Y164343D01*
X132611Y164817D01*
X132611Y174291D01*
X133653Y175333D01*
X138649Y175333D01*
X138723Y175270D01*
X138751Y175258D01*
X138776Y175240D01*
X138873Y175206D01*
X138967Y175166D01*
X138998Y175163D01*
X139027Y175153D01*
X139130Y175149D01*
X139232Y175138D01*
X139262Y175144D01*
X139293Y175143D01*
X139392Y175170D01*
X139492Y175190D01*
X139513Y175203D01*
X139549Y175213D01*
X139737Y175333D01*
X144749Y175333D01*
X144823Y175270D01*
X144851Y175258D01*
X144876Y175240D01*
X144973Y175206D01*
X145067Y175166D01*
X145098Y175163D01*
X145127Y175153D01*
X145230Y175149D01*
X145332Y175138D01*
X145362Y175144D01*
X145393Y175143D01*
X145492Y175170D01*
X145592Y175190D01*
X145613Y175203D01*
X145649Y175213D01*
X145837Y175333D01*
X150827Y175333D01*
X151869Y174291D01*
X151869Y174126D01*
X151884Y174024D01*
X151892Y173922D01*
X151904Y173894D01*
X151909Y173863D01*
X151953Y173771D01*
X151991Y173675D01*
X152011Y173652D01*
X152024Y173624D01*
X152094Y173549D01*
X152159Y173469D01*
X152185Y173452D01*
X152206Y173430D01*
X152295Y173379D01*
X152380Y173322D01*
X152404Y173316D01*
X152436Y173298D01*
X152696Y173240D01*
X152734Y173243D01*
X152757Y173238D01*
X155314Y173238D01*
X170938Y157614D01*
X170955Y157601D01*
X170968Y157585D01*
X171061Y157523D01*
X171152Y157456D01*
X171171Y157449D01*
X171189Y157438D01*
X171233Y157428D01*
X171403Y157369D01*
X171515Y157365D01*
X171566Y157354D01*
X176743Y157354D01*
X178120Y155976D01*
X178203Y155915D01*
X178281Y155849D01*
X178309Y155837D01*
X178334Y155819D01*
X178431Y155785D01*
X178526Y155745D01*
X178556Y155741D01*
X178585Y155731D01*
X178688Y155728D01*
X178790Y155717D01*
X178820Y155723D01*
X178851Y155722D01*
X178950Y155749D01*
X179051Y155769D01*
X179071Y155782D01*
X179107Y155792D01*
X179332Y155935D01*
X179350Y155957D01*
X180605Y155957D01*
X180626Y155960D01*
X180647Y155958D01*
X180757Y155980D01*
X180868Y155997D01*
X180887Y156006D01*
X180908Y156010D01*
X180946Y156034D01*
X181107Y156112D01*
X181190Y156189D01*
X181233Y156217D01*
X189858Y164842D01*
X189871Y164859D01*
X189887Y164872D01*
X189949Y164965D01*
X190016Y165056D01*
X190023Y165075D01*
X190034Y165093D01*
X190044Y165138D01*
X190103Y165307D01*
X190107Y165419D01*
X190118Y165470D01*
X190118Y182256D01*
X190115Y182277D01*
X190117Y182298D01*
X190095Y182408D01*
X190078Y182519D01*
X190069Y182538D01*
X190065Y182559D01*
X190041Y182597D01*
X189963Y182758D01*
X189886Y182841D01*
X189858Y182884D01*
X189742Y183000D01*
X189725Y183013D01*
X189712Y183029D01*
X189619Y183091D01*
X189528Y183158D01*
X189509Y183165D01*
X189491Y183176D01*
X189446Y183186D01*
X189277Y183245D01*
X189165Y183249D01*
X189114Y183260D01*
X185928Y183260D01*
X185826Y183245D01*
X185724Y183237D01*
X185696Y183225D01*
X185665Y183220D01*
X185573Y183176D01*
X185477Y183138D01*
X185454Y183118D01*
X185426Y183105D01*
X185351Y183035D01*
X185271Y182970D01*
X185254Y182944D01*
X185232Y182923D01*
X185181Y182834D01*
X185124Y182749D01*
X185118Y182725D01*
X185100Y182693D01*
X185042Y182433D01*
X185043Y182417D01*
X183347Y180720D01*
X174285Y180720D01*
X172592Y182413D01*
X172592Y187590D01*
X172589Y187611D01*
X172591Y187632D01*
X172569Y187742D01*
X172552Y187853D01*
X172543Y187872D01*
X172539Y187893D01*
X172515Y187931D01*
X172437Y188092D01*
X172360Y188175D01*
X172332Y188218D01*
X170565Y189985D01*
X170548Y189998D01*
X170535Y190014D01*
X170441Y190076D01*
X170351Y190143D01*
X170332Y190150D01*
X170314Y190161D01*
X170269Y190171D01*
X170100Y190230D01*
X169988Y190234D01*
X169937Y190245D01*
X159107Y190245D01*
X159005Y190230D01*
X158903Y190222D01*
X158875Y190210D01*
X158844Y190205D01*
X158752Y190161D01*
X158656Y190123D01*
X158633Y190103D01*
X158605Y190090D01*
X158530Y190020D01*
X158450Y189955D01*
X158433Y189929D01*
X158411Y189908D01*
X158360Y189819D01*
X158303Y189734D01*
X158297Y189710D01*
X158279Y189678D01*
X158221Y189418D01*
X158224Y189380D01*
X158219Y189357D01*
X158219Y185092D01*
X157177Y184050D01*
X147701Y184050D01*
X147599Y184035D01*
X147497Y184027D01*
X147469Y184015D01*
X147438Y184010D01*
X147346Y183966D01*
X147250Y183928D01*
X147227Y183908D01*
X147199Y183895D01*
X147124Y183825D01*
X147044Y183760D01*
X147027Y183734D01*
X147005Y183713D01*
X146954Y183624D01*
X146897Y183539D01*
X146891Y183515D01*
X146873Y183483D01*
X146815Y183223D01*
X146818Y183185D01*
X146813Y183162D01*
X146813Y180881D01*
X143985Y178053D01*
X139987Y178053D01*
X139335Y178705D01*
X139294Y178735D01*
X139258Y178773D01*
X139187Y178814D01*
X139185Y178815D01*
X139174Y178825D01*
X139170Y178826D01*
X139121Y178863D01*
X139072Y178880D01*
X139028Y178905D01*
X138948Y178923D01*
X138870Y178950D01*
X138818Y178952D01*
X138768Y178963D01*
X138686Y178956D01*
X138604Y178959D01*
X138555Y178946D01*
X138503Y178941D01*
X138427Y178911D01*
X138348Y178889D01*
X138304Y178862D01*
X138256Y178842D01*
X138193Y178791D01*
X138124Y178747D01*
X138090Y178707D01*
X138050Y178675D01*
X138038Y178656D01*
X136777Y177395D01*
X127303Y177395D01*
X126261Y178437D01*
X126261Y183411D01*
X126321Y183471D01*
X126382Y183553D01*
X126449Y183632D01*
X126461Y183660D01*
X126479Y183685D01*
X126513Y183782D01*
X126553Y183876D01*
X126556Y183907D01*
X126566Y183936D01*
X126570Y184038D01*
X126581Y184141D01*
X126575Y184171D01*
X126576Y184202D01*
X126549Y184300D01*
X126529Y184401D01*
X126516Y184422D01*
X126506Y184458D01*
X126363Y184682D01*
X126334Y184707D01*
X126321Y184727D01*
X126261Y184787D01*
X126261Y189692D01*
X126258Y189712D01*
X126260Y189733D01*
X126238Y189844D01*
X126221Y189954D01*
X126212Y189973D01*
X126208Y189994D01*
X126184Y190033D01*
X126106Y190194D01*
X126029Y190276D01*
X126028Y190278D01*
X125672Y190893D01*
X125499Y191539D01*
X125499Y192736D01*
X132040Y192736D01*
X138581Y192736D01*
X138581Y191539D01*
X138438Y191008D01*
X138438Y191004D01*
X138436Y191001D01*
X138423Y190870D01*
X138409Y190744D01*
X138409Y190740D01*
X138409Y190737D01*
X138435Y190609D01*
X138459Y190483D01*
X138460Y190480D01*
X138461Y190476D01*
X138469Y190464D01*
X138583Y190248D01*
X138644Y190188D01*
X138668Y190150D01*
X140851Y187967D01*
X140868Y187954D01*
X140882Y187938D01*
X140975Y187876D01*
X141065Y187809D01*
X141085Y187802D01*
X141103Y187791D01*
X141147Y187781D01*
X141316Y187722D01*
X141429Y187718D01*
X141480Y187707D01*
X143985Y187707D01*
X145145Y186547D01*
X145186Y186516D01*
X145222Y186479D01*
X145293Y186438D01*
X145359Y186389D01*
X145408Y186372D01*
X145452Y186347D01*
X145532Y186329D01*
X145610Y186302D01*
X145662Y186300D01*
X145712Y186289D01*
X145794Y186296D01*
X145876Y186293D01*
X145925Y186306D01*
X145977Y186311D01*
X146053Y186341D01*
X146132Y186363D01*
X146176Y186390D01*
X146224Y186410D01*
X146287Y186461D01*
X146356Y186505D01*
X146390Y186545D01*
X146430Y186577D01*
X146475Y186646D01*
X146528Y186708D01*
X146549Y186755D01*
X146577Y186798D01*
X146589Y186849D01*
X146633Y186952D01*
X146651Y187131D01*
X146661Y187175D01*
X146661Y190066D01*
X146721Y190126D01*
X146782Y190209D01*
X146849Y190287D01*
X146861Y190315D01*
X146879Y190340D01*
X146913Y190437D01*
X146953Y190531D01*
X146956Y190562D01*
X146966Y190591D01*
X146970Y190694D01*
X146981Y190796D01*
X146975Y190826D01*
X146976Y190857D01*
X146949Y190956D01*
X146929Y191056D01*
X146916Y191076D01*
X146906Y191113D01*
X146763Y191337D01*
X146734Y191362D01*
X146721Y191382D01*
X146661Y191442D01*
X146661Y196416D01*
X146721Y196476D01*
X146747Y196510D01*
X146755Y196518D01*
X146765Y196535D01*
X146782Y196559D01*
X146849Y196637D01*
X146861Y196665D01*
X146879Y196690D01*
X146913Y196787D01*
X146953Y196881D01*
X146956Y196912D01*
X146966Y196941D01*
X146970Y197044D01*
X146981Y197146D01*
X146975Y197176D01*
X146976Y197207D01*
X146949Y197306D01*
X146929Y197406D01*
X146916Y197426D01*
X146906Y197463D01*
X146763Y197687D01*
X146734Y197712D01*
X146721Y197732D01*
X146661Y197792D01*
X146661Y202766D01*
X147192Y203297D01*
X147223Y203338D01*
X147261Y203374D01*
X147302Y203445D01*
X147350Y203511D01*
X147367Y203560D01*
X147393Y203604D01*
X147411Y203684D01*
X147438Y203762D01*
X147439Y203814D01*
X147451Y203864D01*
X147444Y203946D01*
X147447Y204028D01*
X147433Y204077D01*
X147429Y204129D01*
X147398Y204205D01*
X147377Y204284D01*
X147349Y204328D01*
X147330Y204376D01*
X147278Y204439D01*
X147234Y204508D01*
X147195Y204542D01*
X147162Y204582D01*
X147094Y204627D01*
X147032Y204680D01*
X146984Y204701D01*
X146941Y204729D01*
X146891Y204741D01*
X146787Y204785D01*
X146609Y204803D01*
X146564Y204813D01*
X146255Y204813D01*
X145609Y204986D01*
X145020Y205326D01*
X145019Y205328D01*
X145006Y205344D01*
X144912Y205406D01*
X144822Y205473D01*
X144802Y205480D01*
X144784Y205491D01*
X144740Y205501D01*
X144571Y205560D01*
X144458Y205564D01*
X144408Y205575D01*
X139731Y205575D01*
X139657Y205638D01*
X139629Y205650D01*
X139604Y205668D01*
X139507Y205702D01*
X139413Y205742D01*
X139382Y205745D01*
X139353Y205755D01*
X139250Y205759D01*
X139148Y205770D01*
X139118Y205764D01*
X139087Y205765D01*
X138988Y205738D01*
X138888Y205718D01*
X138867Y205705D01*
X138831Y205695D01*
X138643Y205575D01*
X133653Y205575D01*
X132611Y206617D01*
X132611Y216091D01*
X133653Y217133D01*
X138649Y217133D01*
X138723Y217070D01*
X138751Y217058D01*
X138776Y217040D01*
X138873Y217006D01*
X138967Y216966D01*
X138998Y216963D01*
X139027Y216953D01*
X139129Y216949D01*
X139232Y216938D01*
X139262Y216944D01*
X139293Y216943D01*
X139392Y216970D01*
X139492Y216990D01*
X139512Y217003D01*
X139549Y217013D01*
X139737Y217133D01*
X144408Y217133D01*
X144428Y217136D01*
X144449Y217134D01*
X144560Y217156D01*
X144670Y217173D01*
X144689Y217182D01*
X144710Y217186D01*
X144749Y217210D01*
X144910Y217288D01*
X144992Y217365D01*
X144994Y217366D01*
X145609Y217722D01*
X146255Y217895D01*
X147452Y217895D01*
X147452Y211354D01*
X147467Y211253D01*
X147475Y211150D01*
X147487Y211122D01*
X147491Y211092D01*
X147536Y210999D01*
X147574Y210904D01*
X147594Y210880D01*
X147607Y210852D01*
X147677Y210777D01*
X147742Y210697D01*
X147768Y210680D01*
X147788Y210658D01*
X147789Y210658D01*
X147789Y210657D01*
X147878Y210607D01*
X147964Y210549D01*
X147987Y210544D01*
X148020Y210525D01*
X148279Y210468D01*
X148317Y210471D01*
X148340Y210466D01*
X152631Y210466D01*
X152631Y207019D01*
X152458Y206373D01*
X152123Y205794D01*
X151808Y205479D01*
X151778Y205438D01*
X151740Y205402D01*
X151699Y205331D01*
X151650Y205265D01*
X151634Y205216D01*
X151608Y205172D01*
X151590Y205092D01*
X151563Y205014D01*
X151561Y204962D01*
X151550Y204912D01*
X151557Y204830D01*
X151554Y204748D01*
X151568Y204699D01*
X151572Y204647D01*
X151602Y204571D01*
X151624Y204492D01*
X151651Y204448D01*
X151671Y204400D01*
X151722Y204337D01*
X151766Y204268D01*
X151806Y204234D01*
X151838Y204194D01*
X151907Y204149D01*
X151969Y204096D01*
X152016Y204075D01*
X152059Y204047D01*
X152110Y204035D01*
X152213Y203991D01*
X152392Y203973D01*
X152436Y203963D01*
X171704Y203963D01*
X171806Y203978D01*
X171908Y203986D01*
X171936Y203998D01*
X171967Y204003D01*
X172059Y204047D01*
X172155Y204085D01*
X172178Y204105D01*
X172206Y204118D01*
X172281Y204188D01*
X172361Y204253D01*
X172378Y204279D01*
X172400Y204300D01*
X172451Y204389D01*
X172508Y204474D01*
X172514Y204498D01*
X172532Y204530D01*
X172590Y204790D01*
X172587Y204828D01*
X172592Y204851D01*
X172592Y206969D01*
X174285Y208662D01*
X183347Y208662D01*
X185047Y206961D01*
X185055Y206908D01*
X185063Y206806D01*
X185075Y206778D01*
X185080Y206747D01*
X185124Y206655D01*
X185162Y206559D01*
X185182Y206536D01*
X185195Y206508D01*
X185265Y206433D01*
X185330Y206353D01*
X185356Y206336D01*
X185377Y206314D01*
X185466Y206263D01*
X185551Y206206D01*
X185575Y206200D01*
X185607Y206182D01*
X185867Y206124D01*
X185905Y206127D01*
X185928Y206122D01*
X186690Y206122D01*
X186792Y206137D01*
X186894Y206145D01*
X186922Y206157D01*
X186953Y206162D01*
X187045Y206206D01*
X187141Y206244D01*
X187164Y206264D01*
X187192Y206277D01*
X187267Y206347D01*
X187347Y206412D01*
X187364Y206438D01*
X187386Y206459D01*
X187437Y206548D01*
X187494Y206633D01*
X187500Y206657D01*
X187518Y206689D01*
X187576Y206949D01*
X187575Y206965D01*
X189271Y208662D01*
X198333Y208662D01*
X200026Y206969D01*
X200026Y197907D01*
X198325Y196207D01*
X198272Y196199D01*
X198170Y196191D01*
X198142Y196179D01*
X198111Y196174D01*
X198019Y196130D01*
X197923Y196092D01*
X197900Y196072D01*
X197872Y196059D01*
X197797Y195989D01*
X197717Y195924D01*
X197700Y195898D01*
X197678Y195877D01*
X197627Y195788D01*
X197570Y195703D01*
X197564Y195679D01*
X197546Y195647D01*
X197488Y195387D01*
X197490Y195363D01*
X197488Y195354D01*
X197489Y195340D01*
X197486Y195326D01*
X197486Y162050D01*
X195068Y159632D01*
X186443Y151007D01*
X186430Y150990D01*
X186414Y150977D01*
X186352Y150884D01*
X186285Y150793D01*
X186278Y150774D01*
X186267Y150756D01*
X186257Y150712D01*
X186198Y150542D01*
X186194Y150430D01*
X186183Y150379D01*
X186183Y149131D01*
X183355Y146303D01*
X179350Y146303D01*
X179294Y146344D01*
X179215Y146411D01*
X179187Y146423D01*
X179162Y146441D01*
X179065Y146475D01*
X178971Y146515D01*
X178940Y146519D01*
X178911Y146529D01*
X178809Y146532D01*
X178707Y146543D01*
X178676Y146537D01*
X178646Y146538D01*
X178547Y146511D01*
X178446Y146491D01*
X178426Y146478D01*
X178389Y146468D01*
X178165Y146325D01*
X178140Y146296D01*
X178120Y146284D01*
X176743Y144906D01*
X167681Y144906D01*
X165988Y146599D01*
X165988Y151776D01*
X165985Y151797D01*
X165987Y151818D01*
X165970Y151903D01*
X165965Y151973D01*
X165955Y151997D01*
X165948Y152039D01*
X165939Y152058D01*
X165935Y152079D01*
X165911Y152117D01*
X165887Y152167D01*
X165866Y152220D01*
X165855Y152233D01*
X165833Y152278D01*
X165756Y152361D01*
X165728Y152404D01*
X165474Y152658D01*
X165433Y152689D01*
X165397Y152727D01*
X165326Y152767D01*
X165260Y152816D01*
X165211Y152833D01*
X165167Y152859D01*
X165087Y152876D01*
X165009Y152903D01*
X164957Y152905D01*
X164907Y152916D01*
X164825Y152910D01*
X164743Y152913D01*
X164724Y152907D01*
X158749Y152907D01*
X158749Y158901D01*
X158758Y158943D01*
X158754Y158994D01*
X158760Y159046D01*
X158743Y159126D01*
X158737Y159208D01*
X158718Y159256D01*
X158707Y159306D01*
X158680Y159350D01*
X158638Y159455D01*
X158525Y159594D01*
X158500Y159632D01*
X153220Y164912D01*
X153137Y164973D01*
X153059Y165040D01*
X153031Y165052D01*
X153006Y165070D01*
X152909Y165104D01*
X152815Y165144D01*
X152784Y165147D01*
X152755Y165157D01*
X152652Y165161D01*
X152550Y165172D01*
X152520Y165166D01*
X152489Y165167D01*
X152390Y165140D01*
X152290Y165120D01*
X152269Y165107D01*
X152233Y165097D01*
X152009Y164954D01*
X151984Y164925D01*
X151964Y164912D01*
X150827Y163775D01*
X145923Y163775D01*
X145821Y163760D01*
X145719Y163752D01*
X145691Y163740D01*
X145660Y163735D01*
X145568Y163691D01*
X145472Y163653D01*
X145449Y163633D01*
X145421Y163620D01*
X145346Y163550D01*
X145266Y163485D01*
X145249Y163459D01*
X145227Y163438D01*
X145176Y163349D01*
X145119Y163264D01*
X145113Y163240D01*
X145095Y163208D01*
X145037Y162948D01*
X145040Y162910D01*
X145035Y162887D01*
X145035Y140409D01*
X145038Y140389D01*
X145036Y140368D01*
X145058Y140257D01*
X145075Y140147D01*
X145084Y140128D01*
X145088Y140107D01*
X145112Y140068D01*
X145190Y139907D01*
X145267Y139825D01*
X145295Y139781D01*
X165943Y119133D01*
X165960Y119120D01*
X165973Y119104D01*
X166067Y119042D01*
X166157Y118975D01*
X166177Y118968D01*
X166195Y118957D01*
X166239Y118947D01*
X166408Y118888D01*
X166521Y118884D01*
X166571Y118873D01*
X168910Y118873D01*
X169012Y118888D01*
X169114Y118896D01*
X169142Y118908D01*
X169173Y118913D01*
X169265Y118957D01*
X169361Y118995D01*
X169384Y119015D01*
X169412Y119028D01*
X169487Y119098D01*
X169567Y119163D01*
X169584Y119189D01*
X169606Y119210D01*
X169657Y119299D01*
X169714Y119384D01*
X169720Y119408D01*
X169738Y119440D01*
X169796Y119700D01*
X169794Y119723D01*
X169796Y119731D01*
X169795Y119746D01*
X169798Y119761D01*
X169798Y120609D01*
X171491Y122302D01*
X180553Y122302D01*
X182246Y120609D01*
X182246Y111547D01*
X180553Y109854D01*
X171491Y109854D01*
X169798Y111547D01*
X169798Y112395D01*
X169783Y112497D01*
X169775Y112599D01*
X169763Y112627D01*
X169758Y112658D01*
X169714Y112750D01*
X169676Y112846D01*
X169656Y112869D01*
X169643Y112897D01*
X169573Y112972D01*
X169508Y113052D01*
X169482Y113069D01*
X169461Y113091D01*
X169372Y113142D01*
X169287Y113199D01*
X169263Y113205D01*
X169231Y113223D01*
X168971Y113281D01*
X168933Y113278D01*
X168910Y113283D01*
X166571Y113283D01*
X166551Y113280D01*
X166530Y113282D01*
X166419Y113260D01*
X166309Y113243D01*
X166290Y113234D01*
X166269Y113230D01*
X166230Y113206D01*
X166069Y113128D01*
X165987Y113051D01*
X165943Y113023D01*
X164446Y111526D01*
X156545Y103625D01*
X156515Y103584D01*
X156477Y103548D01*
X156436Y103477D01*
X156387Y103411D01*
X156370Y103362D01*
X156345Y103318D01*
X156327Y103238D01*
X156300Y103160D01*
X156298Y103108D01*
X156287Y103058D01*
X156294Y102976D01*
X156291Y102894D01*
X156305Y102845D01*
X156309Y102793D01*
X156339Y102717D01*
X156361Y102638D01*
X156389Y102594D01*
X156408Y102546D01*
X156460Y102483D01*
X156503Y102414D01*
X156543Y102380D01*
X156575Y102340D01*
X156644Y102295D01*
X156706Y102242D01*
X156754Y102221D01*
X156796Y102193D01*
X156847Y102181D01*
X156951Y102137D01*
X157129Y102119D01*
X157173Y102109D01*
X158161Y102109D01*
X158182Y102112D01*
X158202Y102110D01*
X158313Y102132D01*
X158424Y102149D01*
X158442Y102158D01*
X158463Y102162D01*
X158502Y102186D01*
X158663Y102264D01*
X158745Y102341D01*
X158789Y102369D01*
X160561Y104141D01*
X164559Y104141D01*
X166331Y102369D01*
X166348Y102356D01*
X166361Y102340D01*
X166455Y102278D01*
X166545Y102211D01*
X166565Y102204D01*
X166582Y102193D01*
X166627Y102183D01*
X166796Y102124D01*
X166909Y102120D01*
X166959Y102109D01*
X168910Y102109D01*
X169012Y102124D01*
X169114Y102132D01*
X169142Y102144D01*
X169173Y102149D01*
X169265Y102193D01*
X169361Y102231D01*
X169384Y102251D01*
X169412Y102264D01*
X169487Y102334D01*
X169567Y102399D01*
X169584Y102425D01*
X169606Y102446D01*
X169657Y102535D01*
X169714Y102620D01*
X169720Y102644D01*
X169738Y102676D01*
X169796Y102936D01*
X169793Y102974D01*
X169798Y102997D01*
X169798Y103845D01*
X171491Y105538D01*
X180553Y105538D01*
X182246Y103845D01*
X182246Y94783D01*
X180553Y93090D01*
X171491Y93090D01*
X169798Y94783D01*
X169798Y95631D01*
X169783Y95733D01*
X169775Y95835D01*
X169763Y95863D01*
X169758Y95894D01*
X169714Y95986D01*
X169676Y96082D01*
X169656Y96105D01*
X169643Y96133D01*
X169573Y96208D01*
X169508Y96288D01*
X169482Y96305D01*
X169461Y96327D01*
X169372Y96378D01*
X169287Y96435D01*
X169263Y96441D01*
X169231Y96459D01*
X168971Y96517D01*
X168933Y96514D01*
X168910Y96519D01*
X166959Y96519D01*
X166938Y96516D01*
X166918Y96518D01*
X166807Y96496D01*
X166696Y96479D01*
X166678Y96470D01*
X166657Y96466D01*
X166618Y96442D01*
X166457Y96364D01*
X166375Y96287D01*
X166331Y96259D01*
X164559Y94487D01*
X160561Y94487D01*
X158789Y96259D01*
X158772Y96272D01*
X158759Y96288D01*
X158665Y96350D01*
X158575Y96417D01*
X158555Y96424D01*
X158538Y96435D01*
X158493Y96445D01*
X158324Y96504D01*
X158211Y96508D01*
X158161Y96519D01*
X155196Y96519D01*
X155175Y96516D01*
X155154Y96518D01*
X155044Y96496D01*
X154933Y96479D01*
X154914Y96470D01*
X154893Y96466D01*
X154855Y96442D01*
X154693Y96364D01*
X154611Y96287D01*
X154567Y96259D01*
X124735Y66427D01*
X124722Y66410D01*
X124706Y66396D01*
X124644Y66303D01*
X124577Y66213D01*
X124570Y66193D01*
X124559Y66175D01*
X124549Y66131D01*
X124490Y65962D01*
X124486Y65849D01*
X124475Y65798D01*
X124475Y61417D01*
X124490Y61315D01*
X124498Y61213D01*
X124510Y61185D01*
X124515Y61154D01*
X124559Y61062D01*
X124597Y60966D01*
X124617Y60943D01*
X124630Y60915D01*
X124700Y60840D01*
X124765Y60760D01*
X124791Y60743D01*
X124812Y60721D01*
X124901Y60670D01*
X124986Y60613D01*
X125010Y60607D01*
X125042Y60589D01*
X125302Y60531D01*
X125340Y60534D01*
X125363Y60529D01*
X125417Y60529D01*
X126459Y59487D01*
X126459Y44513D01*
X125417Y43471D01*
X125363Y43471D01*
X125261Y43456D01*
X125159Y43448D01*
X125131Y43436D01*
X125100Y43431D01*
X125008Y43387D01*
X124912Y43349D01*
X124889Y43329D01*
X124861Y43316D01*
X124786Y43246D01*
X124706Y43181D01*
X124689Y43155D01*
X124667Y43134D01*
X124616Y43045D01*
X124559Y42960D01*
X124553Y42936D01*
X124535Y42904D01*
X124477Y42644D01*
X124480Y42606D01*
X124475Y42583D01*
X124475Y39497D01*
X124490Y39395D01*
X124498Y39293D01*
X124510Y39265D01*
X124515Y39234D01*
X124559Y39142D01*
X124597Y39046D01*
X124617Y39023D01*
X124630Y38995D01*
X124700Y38920D01*
X124765Y38840D01*
X124791Y38823D01*
X124812Y38801D01*
X124901Y38750D01*
X124986Y38693D01*
X125010Y38687D01*
X125042Y38669D01*
X125302Y38611D01*
X125340Y38614D01*
X125363Y38609D01*
X189611Y38609D01*
X189713Y38624D01*
X189815Y38632D01*
X189843Y38644D01*
X189874Y38649D01*
X189966Y38693D01*
X190062Y38731D01*
X190085Y38751D01*
X190113Y38764D01*
X190188Y38834D01*
X190268Y38899D01*
X190285Y38925D01*
X190307Y38946D01*
X190358Y39035D01*
X190415Y39120D01*
X190421Y39144D01*
X190439Y39176D01*
X190497Y39436D01*
X190494Y39474D01*
X190499Y39497D01*
X190499Y42843D01*
X190492Y42894D01*
X190493Y42946D01*
X190472Y43025D01*
X190459Y43106D01*
X190437Y43153D01*
X190423Y43202D01*
X190379Y43272D01*
X190344Y43345D01*
X190308Y43383D01*
X190281Y43427D01*
X190218Y43480D01*
X190162Y43540D01*
X190118Y43565D01*
X190078Y43599D01*
X190003Y43631D01*
X189932Y43672D01*
X189881Y43683D01*
X189834Y43703D01*
X189752Y43712D01*
X189672Y43730D01*
X189621Y43725D01*
X189569Y43731D01*
X189489Y43715D01*
X189407Y43708D01*
X189359Y43689D01*
X189309Y43679D01*
X189265Y43651D01*
X189160Y43609D01*
X189021Y43496D01*
X188983Y43471D01*
X181509Y43471D01*
X181413Y43568D01*
X181330Y43629D01*
X181252Y43695D01*
X181224Y43707D01*
X181199Y43725D01*
X181102Y43759D01*
X181008Y43799D01*
X180977Y43803D01*
X180948Y43813D01*
X180845Y43816D01*
X180743Y43827D01*
X180713Y43821D01*
X180682Y43822D01*
X180583Y43795D01*
X180482Y43775D01*
X180462Y43762D01*
X180426Y43752D01*
X180201Y43609D01*
X180177Y43580D01*
X180157Y43568D01*
X179806Y43217D01*
X179227Y42882D01*
X178581Y42709D01*
X176745Y42709D01*
X176745Y51389D01*
X176730Y51490D01*
X176722Y51593D01*
X176710Y51621D01*
X176705Y51652D01*
X176661Y51744D01*
X176623Y51839D01*
X176603Y51863D01*
X176590Y51891D01*
X176520Y51966D01*
X176494Y51997D01*
X176514Y52013D01*
X176531Y52039D01*
X176553Y52060D01*
X176604Y52149D01*
X176661Y52234D01*
X176667Y52258D01*
X176685Y52291D01*
X176743Y52550D01*
X176740Y52588D01*
X176745Y52611D01*
X176745Y61291D01*
X178581Y61291D01*
X179227Y61118D01*
X179806Y60783D01*
X180046Y60543D01*
X180087Y60513D01*
X180123Y60475D01*
X180194Y60434D01*
X180260Y60385D01*
X180309Y60369D01*
X180353Y60343D01*
X180433Y60325D01*
X180511Y60298D01*
X180563Y60296D01*
X180613Y60285D01*
X180695Y60292D01*
X180777Y60289D01*
X180826Y60303D01*
X180878Y60307D01*
X180954Y60337D01*
X181033Y60359D01*
X181077Y60386D01*
X181125Y60406D01*
X181188Y60457D01*
X181257Y60501D01*
X181291Y60541D01*
X181331Y60573D01*
X181376Y60642D01*
X181429Y60704D01*
X181450Y60751D01*
X181478Y60794D01*
X181490Y60845D01*
X181534Y60948D01*
X181552Y61127D01*
X181562Y61171D01*
X181562Y73742D01*
X197859Y90039D01*
X197872Y90056D01*
X197888Y90069D01*
X197950Y90162D01*
X198017Y90253D01*
X198024Y90272D01*
X198035Y90290D01*
X198045Y90335D01*
X198104Y90504D01*
X198108Y90616D01*
X198119Y90667D01*
X198119Y91915D01*
X200947Y94743D01*
X204945Y94743D01*
X207773Y91915D01*
X207773Y87917D01*
X204945Y85089D01*
X203697Y85089D01*
X203676Y85086D01*
X203655Y85088D01*
X203545Y85066D01*
X203434Y85049D01*
X203415Y85040D01*
X203394Y85036D01*
X203356Y85012D01*
X203195Y84934D01*
X203112Y84857D01*
X203069Y84829D01*
X189190Y70950D01*
X189177Y70933D01*
X189161Y70920D01*
X189099Y70827D01*
X189032Y70736D01*
X189025Y70717D01*
X189014Y70699D01*
X189004Y70654D01*
X188945Y70485D01*
X188941Y70373D01*
X188930Y70322D01*
X188930Y60950D01*
X188933Y60929D01*
X188931Y60908D01*
X188953Y60798D01*
X188970Y60687D01*
X188979Y60668D01*
X188983Y60647D01*
X189007Y60609D01*
X189085Y60448D01*
X189162Y60365D01*
X189190Y60322D01*
X189618Y59894D01*
X189700Y59833D01*
X189779Y59766D01*
X189807Y59754D01*
X189832Y59736D01*
X189929Y59702D01*
X190023Y59662D01*
X190054Y59659D01*
X190083Y59649D01*
X190185Y59645D01*
X190288Y59634D01*
X190318Y59640D01*
X190349Y59639D01*
X190448Y59666D01*
X190548Y59686D01*
X190568Y59699D01*
X190605Y59709D01*
X190829Y59852D01*
X190854Y59881D01*
X190874Y59894D01*
X191509Y60529D01*
X198983Y60529D01*
X199618Y59894D01*
X199700Y59833D01*
X199779Y59766D01*
X199807Y59754D01*
X199832Y59736D01*
X199929Y59702D01*
X200023Y59662D01*
X200054Y59659D01*
X200083Y59649D01*
X200185Y59645D01*
X200288Y59634D01*
X200318Y59640D01*
X200349Y59639D01*
X200448Y59666D01*
X200548Y59686D01*
X200568Y59699D01*
X200605Y59709D01*
X200829Y59852D01*
X200854Y59881D01*
X200874Y59894D01*
X201509Y60529D01*
X208983Y60529D01*
X210025Y59487D01*
X210025Y44513D01*
X208983Y43471D01*
X208929Y43471D01*
X208827Y43456D01*
X208725Y43448D01*
X208697Y43436D01*
X208666Y43431D01*
X208574Y43387D01*
X208478Y43349D01*
X208455Y43329D01*
X208427Y43316D01*
X208352Y43246D01*
X208272Y43181D01*
X208255Y43155D01*
X208233Y43134D01*
X208182Y43045D01*
X208125Y42960D01*
X208119Y42936D01*
X208101Y42904D01*
X208043Y42644D01*
X208046Y42606D01*
X208041Y42583D01*
X208041Y38734D01*
X202326Y33019D01*
X84228Y33019D01*
X26550Y90698D01*
X26509Y90728D01*
X26473Y90766D01*
X26402Y90807D01*
X26336Y90855D01*
X26287Y90872D01*
X26243Y90898D01*
X26163Y90916D01*
X26085Y90943D01*
X26033Y90944D01*
X25983Y90956D01*
X25901Y90949D01*
X25819Y90952D01*
X25770Y90938D01*
X25718Y90934D01*
X25642Y90904D01*
X25563Y90882D01*
X25519Y90854D01*
X25471Y90835D01*
X25408Y90783D01*
X25339Y90739D01*
X25305Y90700D01*
X25265Y90667D01*
X25220Y90599D01*
X25167Y90537D01*
X25146Y90489D01*
X25118Y90446D01*
X25106Y90396D01*
X25062Y90292D01*
X25044Y90114D01*
X25034Y90070D01*
X25034Y71808D01*
X23992Y70766D01*
X6096Y70766D01*
X5994Y70751D01*
X5892Y70743D01*
X5864Y70731D01*
X5833Y70726D01*
X5741Y70682D01*
X5645Y70644D01*
X5622Y70624D01*
X5594Y70611D01*
X5519Y70541D01*
X5439Y70476D01*
X5422Y70450D01*
X5400Y70429D01*
X5349Y70340D01*
X5292Y70255D01*
X5286Y70231D01*
X5268Y70199D01*
X5210Y69939D01*
X5213Y69901D01*
X5208Y69878D01*
X5208Y48802D01*
X5213Y48768D01*
X5210Y48733D01*
X5233Y48637D01*
X5248Y48539D01*
X5263Y48508D01*
X5270Y48474D01*
X5320Y48389D01*
X5363Y48300D01*
X5387Y48274D01*
X5404Y48245D01*
X5477Y48178D01*
X5545Y48105D01*
X5575Y48088D01*
X5600Y48065D01*
X5690Y48023D01*
X5775Y47973D01*
X5809Y47966D01*
X5840Y47951D01*
X5938Y47937D01*
X6035Y47916D01*
X6069Y47919D01*
X6103Y47914D01*
X6201Y47929D01*
X6300Y47937D01*
X6332Y47950D01*
X6366Y47956D01*
X6455Y47999D01*
X6547Y48036D01*
X6573Y48058D01*
X6604Y48073D01*
X6640Y48112D01*
X6753Y48204D01*
X6830Y48319D01*
X6865Y48358D01*
X7275Y49068D01*
X15168Y55690D01*
X24849Y59214D01*
X35151Y59214D01*
X44832Y55690D01*
X52725Y49068D01*
X57876Y40146D01*
X59665Y30000D01*
X57876Y19854D01*
X52725Y10932D01*
X47772Y6776D01*
X47713Y6709D01*
X47647Y6647D01*
X47625Y6610D01*
X47597Y6577D01*
X47560Y6495D01*
X47515Y6417D01*
X47506Y6374D01*
X47488Y6335D01*
X47477Y6245D01*
X47457Y6157D01*
X47461Y6114D01*
X47455Y6071D01*
X47471Y5982D01*
X47479Y5892D01*
X47495Y5852D01*
X47503Y5809D01*
X47544Y5729D01*
X47578Y5645D01*
X47605Y5612D01*
X47625Y5573D01*
X47688Y5509D01*
X47745Y5439D01*
X47782Y5415D01*
X47812Y5384D01*
X47892Y5342D01*
X47967Y5292D01*
X47998Y5285D01*
X48047Y5259D01*
X48308Y5208D01*
X48329Y5211D01*
X48343Y5208D01*
X69251Y5208D01*
X69353Y5223D01*
G37*
G36*
X85272Y45666D02*
X85272Y45666D01*
X85354Y45663D01*
X85403Y45677D01*
X85455Y45681D01*
X85531Y45712D01*
X85610Y45733D01*
X85654Y45761D01*
X85702Y45780D01*
X85765Y45832D01*
X85834Y45876D01*
X85868Y45915D01*
X85908Y45948D01*
X85953Y46016D01*
X86006Y46078D01*
X86027Y46126D01*
X86055Y46169D01*
X86067Y46219D01*
X86111Y46323D01*
X86129Y46501D01*
X86139Y46546D01*
X86139Y50501D01*
X91069Y50501D01*
X91170Y50516D01*
X91273Y50524D01*
X91301Y50536D01*
X91332Y50540D01*
X91424Y50585D01*
X91519Y50623D01*
X91543Y50643D01*
X91571Y50656D01*
X91646Y50726D01*
X91726Y50791D01*
X91743Y50817D01*
X91765Y50838D01*
X91816Y50927D01*
X91873Y51012D01*
X91878Y51036D01*
X91897Y51068D01*
X91955Y51328D01*
X91954Y51334D01*
X91955Y51336D01*
X91952Y51368D01*
X91957Y51389D01*
X91957Y51723D01*
X92291Y51723D01*
X92393Y51738D01*
X92495Y51747D01*
X92523Y51758D01*
X92554Y51763D01*
X92646Y51807D01*
X92742Y51846D01*
X92765Y51865D01*
X92793Y51878D01*
X92868Y51949D01*
X92948Y52013D01*
X92965Y52039D01*
X92987Y52060D01*
X93038Y52149D01*
X93095Y52234D01*
X93101Y52258D01*
X93119Y52291D01*
X93177Y52550D01*
X93174Y52588D01*
X93179Y52611D01*
X93179Y61291D01*
X95015Y61291D01*
X95661Y61118D01*
X96240Y60783D01*
X96480Y60543D01*
X96521Y60513D01*
X96557Y60475D01*
X96628Y60434D01*
X96694Y60385D01*
X96743Y60369D01*
X96787Y60343D01*
X96867Y60325D01*
X96945Y60298D01*
X96997Y60296D01*
X97047Y60285D01*
X97129Y60292D01*
X97211Y60289D01*
X97260Y60303D01*
X97312Y60307D01*
X97388Y60337D01*
X97467Y60359D01*
X97511Y60386D01*
X97559Y60406D01*
X97622Y60457D01*
X97691Y60501D01*
X97725Y60541D01*
X97765Y60573D01*
X97810Y60642D01*
X97863Y60704D01*
X97884Y60751D01*
X97912Y60794D01*
X97924Y60845D01*
X97968Y60948D01*
X97986Y61127D01*
X97996Y61171D01*
X97996Y120200D01*
X97993Y120221D01*
X97995Y120242D01*
X97973Y120352D01*
X97956Y120463D01*
X97947Y120482D01*
X97943Y120503D01*
X97919Y120541D01*
X97841Y120702D01*
X97764Y120785D01*
X97736Y120828D01*
X97540Y121024D01*
X97523Y121037D01*
X97510Y121053D01*
X97417Y121115D01*
X97326Y121182D01*
X97307Y121189D01*
X97289Y121200D01*
X97244Y121210D01*
X97075Y121269D01*
X96963Y121273D01*
X96912Y121284D01*
X45506Y121284D01*
X43088Y123702D01*
X19415Y147375D01*
X19366Y147412D01*
X19322Y147456D01*
X19259Y147490D01*
X19201Y147533D01*
X19143Y147553D01*
X19088Y147583D01*
X19018Y147597D01*
X18950Y147620D01*
X18888Y147622D01*
X18828Y147634D01*
X18780Y147626D01*
X18685Y147629D01*
X18478Y147573D01*
X18447Y147568D01*
X16996Y146966D01*
X13004Y146966D01*
X9316Y148494D01*
X6724Y151086D01*
X6683Y151117D01*
X6647Y151154D01*
X6576Y151195D01*
X6510Y151244D01*
X6461Y151261D01*
X6417Y151286D01*
X6337Y151304D01*
X6259Y151331D01*
X6207Y151333D01*
X6157Y151344D01*
X6075Y151338D01*
X5993Y151340D01*
X5944Y151327D01*
X5892Y151323D01*
X5816Y151292D01*
X5737Y151270D01*
X5693Y151243D01*
X5645Y151224D01*
X5582Y151172D01*
X5513Y151128D01*
X5479Y151089D01*
X5439Y151056D01*
X5394Y150988D01*
X5341Y150925D01*
X5320Y150878D01*
X5292Y150835D01*
X5280Y150784D01*
X5236Y150681D01*
X5218Y150502D01*
X5208Y150458D01*
X5208Y138142D01*
X5215Y138091D01*
X5214Y138039D01*
X5235Y137960D01*
X5248Y137879D01*
X5270Y137833D01*
X5284Y137783D01*
X5328Y137714D01*
X5363Y137640D01*
X5398Y137602D01*
X5426Y137559D01*
X5489Y137505D01*
X5545Y137446D01*
X5589Y137420D01*
X5629Y137387D01*
X5704Y137354D01*
X5775Y137314D01*
X5826Y137302D01*
X5873Y137282D01*
X5955Y137274D01*
X6035Y137256D01*
X6086Y137260D01*
X6138Y137255D01*
X6218Y137271D01*
X6300Y137277D01*
X6348Y137297D01*
X6398Y137307D01*
X6442Y137334D01*
X6547Y137376D01*
X6686Y137489D01*
X6724Y137514D01*
X9316Y140106D01*
X13004Y141634D01*
X16996Y141634D01*
X20684Y140106D01*
X23506Y137284D01*
X25034Y133596D01*
X25034Y129604D01*
X24064Y127264D01*
X24049Y127203D01*
X24025Y127146D01*
X24018Y127075D01*
X24000Y127006D01*
X24004Y126944D01*
X23998Y126882D01*
X24012Y126812D01*
X24016Y126740D01*
X24037Y126682D01*
X24050Y126621D01*
X24075Y126581D01*
X24109Y126491D01*
X24240Y126322D01*
X24257Y126296D01*
X30361Y120191D01*
X32259Y118294D01*
X32259Y98650D01*
X32262Y98629D01*
X32260Y98608D01*
X32282Y98498D01*
X32299Y98387D01*
X32308Y98368D01*
X32312Y98347D01*
X32336Y98309D01*
X32414Y98148D01*
X32491Y98065D01*
X32519Y98022D01*
X84623Y45918D01*
X84664Y45887D01*
X84700Y45849D01*
X84771Y45809D01*
X84837Y45760D01*
X84886Y45743D01*
X84930Y45717D01*
X85010Y45699D01*
X85088Y45673D01*
X85140Y45671D01*
X85190Y45660D01*
X85272Y45666D01*
G37*
G36*
X106752Y59640D02*
X106752Y59640D01*
X106783Y59639D01*
X106882Y59666D01*
X106982Y59686D01*
X107002Y59699D01*
X107039Y59709D01*
X107263Y59852D01*
X107288Y59881D01*
X107308Y59894D01*
X107943Y60529D01*
X107997Y60529D01*
X108099Y60544D01*
X108201Y60552D01*
X108229Y60564D01*
X108260Y60569D01*
X108352Y60613D01*
X108448Y60651D01*
X108471Y60671D01*
X108499Y60684D01*
X108574Y60754D01*
X108654Y60819D01*
X108671Y60845D01*
X108693Y60866D01*
X108744Y60955D01*
X108801Y61040D01*
X108807Y61064D01*
X108825Y61096D01*
X108883Y61356D01*
X108880Y61394D01*
X108885Y61417D01*
X108885Y63870D01*
X160465Y115450D01*
X160526Y115533D01*
X160593Y115611D01*
X160605Y115639D01*
X160623Y115664D01*
X160657Y115761D01*
X160697Y115855D01*
X160700Y115886D01*
X160710Y115915D01*
X160714Y116017D01*
X160725Y116120D01*
X160719Y116150D01*
X160720Y116181D01*
X160693Y116280D01*
X160673Y116380D01*
X160660Y116400D01*
X160650Y116437D01*
X160507Y116661D01*
X160478Y116686D01*
X160465Y116706D01*
X154057Y123115D01*
X153974Y123176D01*
X153896Y123242D01*
X153868Y123254D01*
X153843Y123272D01*
X153746Y123306D01*
X153652Y123346D01*
X153621Y123350D01*
X153592Y123360D01*
X153489Y123363D01*
X153387Y123374D01*
X153357Y123368D01*
X153326Y123369D01*
X153227Y123342D01*
X153126Y123322D01*
X153106Y123309D01*
X153070Y123299D01*
X152899Y123191D01*
X152897Y123189D01*
X152896Y123188D01*
X152845Y123156D01*
X152821Y123127D01*
X152801Y123115D01*
X149827Y120141D01*
X145829Y120141D01*
X144946Y121024D01*
X144929Y121037D01*
X144916Y121053D01*
X144822Y121115D01*
X144732Y121182D01*
X144712Y121189D01*
X144695Y121200D01*
X144650Y121210D01*
X144481Y121269D01*
X144368Y121273D01*
X144318Y121284D01*
X140208Y121284D01*
X140106Y121269D01*
X140004Y121261D01*
X139976Y121249D01*
X139945Y121244D01*
X139853Y121200D01*
X139757Y121162D01*
X139734Y121142D01*
X139706Y121129D01*
X139631Y121059D01*
X139551Y120994D01*
X139534Y120968D01*
X139512Y120947D01*
X139461Y120858D01*
X139404Y120773D01*
X139398Y120749D01*
X139380Y120717D01*
X139322Y120457D01*
X139323Y120441D01*
X137627Y118744D01*
X128565Y118744D01*
X126865Y120445D01*
X126857Y120498D01*
X126849Y120600D01*
X126837Y120628D01*
X126832Y120659D01*
X126788Y120751D01*
X126750Y120847D01*
X126730Y120870D01*
X126717Y120898D01*
X126647Y120973D01*
X126582Y121053D01*
X126556Y121070D01*
X126535Y121092D01*
X126446Y121143D01*
X126361Y121200D01*
X126337Y121206D01*
X126305Y121224D01*
X126045Y121282D01*
X126007Y121279D01*
X125984Y121284D01*
X106542Y121284D01*
X106521Y121281D01*
X106500Y121283D01*
X106390Y121261D01*
X106279Y121244D01*
X106260Y121235D01*
X106239Y121231D01*
X106201Y121207D01*
X106040Y121129D01*
X105957Y121052D01*
X105914Y121024D01*
X105624Y120734D01*
X105611Y120717D01*
X105595Y120704D01*
X105533Y120611D01*
X105466Y120520D01*
X105459Y120501D01*
X105448Y120483D01*
X105438Y120438D01*
X105379Y120269D01*
X105375Y120157D01*
X105364Y120106D01*
X105364Y60950D01*
X105367Y60929D01*
X105365Y60908D01*
X105387Y60798D01*
X105404Y60687D01*
X105413Y60668D01*
X105417Y60647D01*
X105441Y60609D01*
X105519Y60448D01*
X105596Y60365D01*
X105624Y60322D01*
X106052Y59894D01*
X106135Y59833D01*
X106213Y59766D01*
X106241Y59754D01*
X106266Y59736D01*
X106363Y59702D01*
X106457Y59662D01*
X106488Y59659D01*
X106517Y59649D01*
X106619Y59645D01*
X106722Y59634D01*
X106752Y59640D01*
G37*
G36*
X25893Y107841D02*
X25893Y107841D01*
X25985Y107848D01*
X26023Y107864D01*
X26064Y107871D01*
X26146Y107913D01*
X26232Y107947D01*
X26264Y107973D01*
X26300Y107992D01*
X26366Y108056D01*
X26438Y108115D01*
X26461Y108149D01*
X26490Y108178D01*
X26534Y108259D01*
X26585Y108336D01*
X26592Y108366D01*
X26617Y108412D01*
X26668Y108672D01*
X26665Y108693D01*
X26669Y108713D01*
X26669Y115610D01*
X26666Y115631D01*
X26668Y115652D01*
X26646Y115762D01*
X26629Y115873D01*
X26620Y115892D01*
X26616Y115913D01*
X26592Y115951D01*
X26514Y116113D01*
X26437Y116195D01*
X26409Y116239D01*
X20304Y122343D01*
X20255Y122380D01*
X20211Y122424D01*
X20148Y122458D01*
X20090Y122501D01*
X20032Y122521D01*
X19977Y122551D01*
X19907Y122565D01*
X19839Y122588D01*
X19778Y122590D01*
X19717Y122602D01*
X19669Y122594D01*
X19574Y122597D01*
X19367Y122541D01*
X19336Y122536D01*
X16996Y121566D01*
X13004Y121566D01*
X9316Y123094D01*
X6724Y125686D01*
X6683Y125717D01*
X6647Y125754D01*
X6576Y125795D01*
X6510Y125844D01*
X6461Y125861D01*
X6417Y125886D01*
X6337Y125904D01*
X6259Y125931D01*
X6207Y125933D01*
X6157Y125944D01*
X6075Y125938D01*
X5993Y125940D01*
X5944Y125927D01*
X5892Y125923D01*
X5816Y125892D01*
X5737Y125870D01*
X5693Y125843D01*
X5645Y125824D01*
X5582Y125772D01*
X5513Y125728D01*
X5479Y125689D01*
X5439Y125656D01*
X5394Y125588D01*
X5341Y125525D01*
X5320Y125478D01*
X5292Y125435D01*
X5280Y125384D01*
X5236Y125281D01*
X5218Y125102D01*
X5208Y125058D01*
X5208Y112742D01*
X5215Y112691D01*
X5214Y112639D01*
X5235Y112560D01*
X5248Y112479D01*
X5270Y112433D01*
X5284Y112383D01*
X5328Y112314D01*
X5363Y112240D01*
X5398Y112202D01*
X5426Y112159D01*
X5489Y112105D01*
X5545Y112046D01*
X5589Y112020D01*
X5629Y111987D01*
X5704Y111954D01*
X5775Y111914D01*
X5826Y111902D01*
X5873Y111882D01*
X5955Y111874D01*
X6035Y111856D01*
X6086Y111860D01*
X6138Y111855D01*
X6218Y111871D01*
X6300Y111877D01*
X6348Y111897D01*
X6398Y111907D01*
X6442Y111934D01*
X6547Y111976D01*
X6686Y112089D01*
X6724Y112114D01*
X9316Y114706D01*
X13004Y116234D01*
X16996Y116234D01*
X20684Y114706D01*
X23506Y111884D01*
X24960Y108373D01*
X25008Y108294D01*
X25048Y108211D01*
X25076Y108180D01*
X25098Y108145D01*
X25167Y108084D01*
X25230Y108016D01*
X25266Y107996D01*
X25296Y107969D01*
X25380Y107930D01*
X25460Y107884D01*
X25501Y107875D01*
X25538Y107858D01*
X25630Y107847D01*
X25720Y107827D01*
X25761Y107830D01*
X25802Y107825D01*
X25893Y107841D01*
G37*
%LPC*%
G36*
X132040Y194512D02*
X132040Y194512D01*
X125499Y194512D01*
X125499Y195709D01*
X125672Y196355D01*
X126012Y196944D01*
X126014Y196945D01*
X126030Y196958D01*
X126092Y197052D01*
X126159Y197142D01*
X126166Y197162D01*
X126177Y197180D01*
X126187Y197224D01*
X126246Y197393D01*
X126250Y197506D01*
X126261Y197556D01*
X126261Y202461D01*
X127303Y203503D01*
X136777Y203503D01*
X137819Y202461D01*
X137819Y197556D01*
X137822Y197536D01*
X137820Y197515D01*
X137842Y197404D01*
X137859Y197294D01*
X137868Y197275D01*
X137872Y197254D01*
X137896Y197215D01*
X137974Y197054D01*
X138051Y196972D01*
X138052Y196970D01*
X138408Y196355D01*
X138581Y195709D01*
X138581Y194512D01*
X132040Y194512D01*
X132040Y194512D01*
G37*
%LPD*%
%LPC*%
G36*
X80457Y17027D02*
X80457Y17027D01*
X80457Y27791D01*
X85015Y27791D01*
X85661Y27618D01*
X86240Y27283D01*
X86713Y26810D01*
X87048Y26231D01*
X87221Y25585D01*
X87221Y17027D01*
X80457Y17027D01*
G37*
%LPD*%
%LPC*%
G36*
X164023Y17027D02*
X164023Y17027D01*
X164023Y27791D01*
X168581Y27791D01*
X169227Y27618D01*
X169806Y27283D01*
X170279Y26810D01*
X170614Y26231D01*
X170787Y25585D01*
X170787Y17027D01*
X164023Y17027D01*
G37*
%LPD*%
%LPC*%
G36*
X136457Y17027D02*
X136457Y17027D01*
X136457Y27791D01*
X141015Y27791D01*
X141661Y27618D01*
X142240Y27283D01*
X142713Y26810D01*
X143048Y26231D01*
X143221Y25585D01*
X143221Y17027D01*
X136457Y17027D01*
G37*
%LPD*%
%LPC*%
G36*
X70139Y17027D02*
X70139Y17027D01*
X70139Y25585D01*
X70312Y26231D01*
X70647Y26810D01*
X71120Y27283D01*
X71699Y27618D01*
X72345Y27791D01*
X76903Y27791D01*
X76903Y17027D01*
X70139Y17027D01*
G37*
%LPD*%
%LPC*%
G36*
X209705Y17027D02*
X209705Y17027D01*
X209705Y25585D01*
X209878Y26231D01*
X210213Y26810D01*
X210686Y27283D01*
X211265Y27618D01*
X211911Y27791D01*
X216469Y27791D01*
X216469Y17027D01*
X209705Y17027D01*
G37*
%LPD*%
%LPC*%
G36*
X153705Y17027D02*
X153705Y17027D01*
X153705Y25585D01*
X153878Y26231D01*
X154213Y26810D01*
X154686Y27283D01*
X155265Y27618D01*
X155911Y27791D01*
X160469Y27791D01*
X160469Y17027D01*
X153705Y17027D01*
G37*
%LPD*%
%LPC*%
G36*
X126139Y17027D02*
X126139Y17027D01*
X126139Y25585D01*
X126312Y26231D01*
X126647Y26810D01*
X127120Y27283D01*
X127699Y27618D01*
X128345Y27791D01*
X132903Y27791D01*
X132903Y17027D01*
X126139Y17027D01*
G37*
%LPD*%
%LPC*%
G36*
X16777Y184177D02*
X16777Y184177D01*
X16777Y193049D01*
X17528Y192930D01*
X19144Y192405D01*
X20658Y191633D01*
X22033Y190635D01*
X23235Y189433D01*
X24233Y188058D01*
X25005Y186544D01*
X25530Y184928D01*
X25649Y184177D01*
X16777Y184177D01*
G37*
%LPD*%
%LPC*%
G36*
X16777Y180623D02*
X16777Y180623D01*
X25649Y180623D01*
X25530Y179872D01*
X25005Y178256D01*
X24233Y176742D01*
X23235Y175367D01*
X22033Y174165D01*
X20658Y173167D01*
X19144Y172395D01*
X17528Y171870D01*
X16777Y171751D01*
X16777Y180623D01*
G37*
%LPD*%
%LPC*%
G36*
X180593Y219455D02*
X180593Y219455D01*
X180593Y224664D01*
X182631Y224664D01*
X183559Y224415D01*
X184392Y223934D01*
X185072Y223254D01*
X185540Y222444D01*
X185583Y222390D01*
X185617Y222331D01*
X185665Y222287D01*
X185706Y222236D01*
X185762Y222198D01*
X185813Y222151D01*
X185872Y222124D01*
X185925Y222087D01*
X185991Y222067D01*
X186053Y222038D01*
X186118Y222028D01*
X186180Y222009D01*
X186248Y222010D01*
X186316Y222000D01*
X186381Y222010D01*
X186446Y222010D01*
X186511Y222031D01*
X186579Y222042D01*
X186637Y222071D01*
X186699Y222090D01*
X186756Y222129D01*
X186817Y222160D01*
X186848Y222193D01*
X186918Y222241D01*
X187069Y222434D01*
X187078Y222444D01*
X187546Y223254D01*
X188226Y223934D01*
X189059Y224415D01*
X189987Y224664D01*
X192025Y224664D01*
X192025Y219455D01*
X180593Y219455D01*
G37*
%LPD*%
%LPC*%
G36*
X180593Y210692D02*
X180593Y210692D01*
X180593Y215901D01*
X192025Y215901D01*
X192025Y210692D01*
X189987Y210692D01*
X189059Y210941D01*
X188226Y211422D01*
X187546Y212102D01*
X187078Y212912D01*
X187035Y212966D01*
X187001Y213025D01*
X186953Y213069D01*
X186912Y213120D01*
X186856Y213158D01*
X186805Y213205D01*
X186746Y213232D01*
X186693Y213269D01*
X186627Y213289D01*
X186565Y213318D01*
X186500Y213328D01*
X186438Y213347D01*
X186370Y213346D01*
X186302Y213356D01*
X186237Y213346D01*
X186172Y213346D01*
X186107Y213325D01*
X186039Y213314D01*
X185981Y213285D01*
X185919Y213266D01*
X185862Y213227D01*
X185801Y213196D01*
X185770Y213163D01*
X185700Y213115D01*
X185549Y212922D01*
X185540Y212912D01*
X185072Y212102D01*
X184392Y211422D01*
X183559Y210941D01*
X182631Y210692D01*
X180593Y210692D01*
G37*
%LPD*%
%LPC*%
G36*
X169705Y53499D02*
X169705Y53499D01*
X169705Y59085D01*
X169878Y59731D01*
X170213Y60310D01*
X170686Y60783D01*
X171265Y61118D01*
X171911Y61291D01*
X173747Y61291D01*
X173747Y53499D01*
X169705Y53499D01*
G37*
%LPD*%
%LPC*%
G36*
X86139Y53499D02*
X86139Y53499D01*
X86139Y59085D01*
X86312Y59731D01*
X86647Y60310D01*
X87120Y60783D01*
X87699Y61118D01*
X88345Y61291D01*
X90181Y61291D01*
X90181Y53499D01*
X86139Y53499D01*
G37*
%LPD*%
%LPC*%
G36*
X171911Y42709D02*
X171911Y42709D01*
X171265Y42882D01*
X170686Y43217D01*
X170213Y43690D01*
X169878Y44269D01*
X169705Y44915D01*
X169705Y50501D01*
X173747Y50501D01*
X173747Y42709D01*
X171911Y42709D01*
G37*
%LPD*%
%LPC*%
G36*
X195579Y219455D02*
X195579Y219455D01*
X195579Y224664D01*
X197617Y224664D01*
X198545Y224415D01*
X199378Y223934D01*
X200058Y223254D01*
X200539Y222421D01*
X200788Y221493D01*
X200788Y219455D01*
X195579Y219455D01*
G37*
%LPD*%
%LPC*%
G36*
X180593Y173481D02*
X180593Y173481D01*
X180593Y178690D01*
X182631Y178690D01*
X183559Y178441D01*
X184392Y177960D01*
X185072Y177280D01*
X185553Y176447D01*
X185802Y175519D01*
X185802Y173481D01*
X180593Y173481D01*
G37*
%LPD*%
%LPC*%
G36*
X171830Y219455D02*
X171830Y219455D01*
X171830Y221493D01*
X172079Y222421D01*
X172560Y223254D01*
X173240Y223934D01*
X174073Y224415D01*
X175001Y224664D01*
X177039Y224664D01*
X177039Y219455D01*
X171830Y219455D01*
G37*
%LPD*%
%LPC*%
G36*
X195579Y210692D02*
X195579Y210692D01*
X195579Y215901D01*
X200788Y215901D01*
X200788Y213863D01*
X200539Y212935D01*
X200058Y212102D01*
X199378Y211422D01*
X198545Y210941D01*
X197617Y210692D01*
X195579Y210692D01*
G37*
%LPD*%
%LPC*%
G36*
X171830Y173481D02*
X171830Y173481D01*
X171830Y175519D01*
X172079Y176447D01*
X172560Y177280D01*
X173240Y177960D01*
X174073Y178441D01*
X175001Y178690D01*
X177039Y178690D01*
X177039Y173481D01*
X171830Y173481D01*
G37*
%LPD*%
%LPC*%
G36*
X158749Y144144D02*
X158749Y144144D01*
X158749Y149353D01*
X163958Y149353D01*
X163958Y147315D01*
X163709Y146387D01*
X163228Y145554D01*
X162548Y144874D01*
X161715Y144393D01*
X160787Y144144D01*
X158749Y144144D01*
G37*
%LPD*%
%LPC*%
G36*
X149986Y152907D02*
X149986Y152907D01*
X149986Y154945D01*
X150235Y155873D01*
X150716Y156706D01*
X151396Y157386D01*
X152229Y157867D01*
X153157Y158116D01*
X155195Y158116D01*
X155195Y152907D01*
X149986Y152907D01*
G37*
%LPD*%
%LPC*%
G36*
X180593Y164718D02*
X180593Y164718D01*
X180593Y169927D01*
X185802Y169927D01*
X185802Y167889D01*
X185553Y166961D01*
X185072Y166128D01*
X184392Y165448D01*
X183559Y164967D01*
X182631Y164718D01*
X180593Y164718D01*
G37*
%LPD*%
%LPC*%
G36*
X175001Y210692D02*
X175001Y210692D01*
X174073Y210941D01*
X173240Y211422D01*
X172560Y212102D01*
X172079Y212935D01*
X171830Y213863D01*
X171830Y215901D01*
X177039Y215901D01*
X177039Y210692D01*
X175001Y210692D01*
G37*
%LPD*%
%LPC*%
G36*
X153157Y144144D02*
X153157Y144144D01*
X152229Y144393D01*
X151396Y144874D01*
X150716Y145554D01*
X150235Y146387D01*
X149986Y147315D01*
X149986Y149353D01*
X155195Y149353D01*
X155195Y144144D01*
X153157Y144144D01*
G37*
%LPD*%
%LPC*%
G36*
X175001Y164718D02*
X175001Y164718D01*
X174073Y164967D01*
X173240Y165448D01*
X172560Y166128D01*
X172079Y166961D01*
X171830Y167889D01*
X171830Y169927D01*
X177039Y169927D01*
X177039Y164718D01*
X175001Y164718D01*
G37*
%LPD*%
%LPC*%
G36*
X149228Y212242D02*
X149228Y212242D01*
X149228Y217895D01*
X150425Y217895D01*
X151071Y217722D01*
X151650Y217387D01*
X152123Y216914D01*
X152458Y216335D01*
X152631Y215689D01*
X152631Y212242D01*
X149228Y212242D01*
G37*
%LPD*%
%LPC*%
G36*
X178815Y217677D02*
X178815Y217677D01*
X178815Y217679D01*
X178817Y217679D01*
X178817Y217677D01*
X178815Y217677D01*
G37*
%LPD*%
%LPC*%
G36*
X193801Y217677D02*
X193801Y217677D01*
X193801Y217679D01*
X193803Y217679D01*
X193803Y217677D01*
X193801Y217677D01*
G37*
%LPD*%
%LPC*%
G36*
X156971Y151129D02*
X156971Y151129D01*
X156971Y151131D01*
X156973Y151131D01*
X156973Y151129D01*
X156971Y151129D01*
G37*
%LPD*%
%LPC*%
G36*
X178815Y171703D02*
X178815Y171703D01*
X178815Y171705D01*
X178817Y171705D01*
X178817Y171703D01*
X178815Y171703D01*
G37*
%LPD*%
D10*
X91680Y52000D03*
X101680Y52000D03*
X111680Y52000D03*
X121680Y52000D03*
D11*
X134680Y15250D03*
X78680Y15250D03*
D10*
X175246Y52000D03*
X185246Y52000D03*
X195246Y52000D03*
X205246Y52000D03*
D11*
X218246Y15250D03*
X162246Y15250D03*
D12*
X217424Y116078D03*
X217424Y107950D03*
X217424Y99822D03*
D13*
X217424Y107950D02*
X217424Y116332D01*
X217424Y107950D02*
X217424Y99314D01*
D14*
X179356Y95980D02*
X172688Y95980D01*
X172688Y102648D01*
X179356Y102648D01*
X179356Y95980D01*
X179356Y98092D02*
X172688Y98092D01*
X172688Y100204D02*
X179356Y100204D01*
X179356Y102316D02*
X172688Y102316D01*
X187928Y95980D02*
X194596Y95980D01*
X187928Y95980D02*
X187928Y102648D01*
X194596Y102648D01*
X194596Y95980D01*
X194596Y98092D02*
X187928Y98092D01*
X187928Y100204D02*
X194596Y100204D01*
X194596Y102316D02*
X187928Y102316D01*
X179356Y112744D02*
X172688Y112744D01*
X172688Y119412D01*
X179356Y119412D01*
X179356Y112744D01*
X179356Y114856D02*
X172688Y114856D01*
X172688Y116968D02*
X179356Y116968D01*
X179356Y119080D02*
X172688Y119080D01*
X187928Y112744D02*
X194596Y112744D01*
X187928Y112744D02*
X187928Y119412D01*
X194596Y119412D01*
X194596Y112744D01*
X194596Y114856D02*
X187928Y114856D01*
X187928Y116968D02*
X194596Y116968D01*
X194596Y119080D02*
X187928Y119080D01*
D15*
X148340Y169554D03*
X142240Y169554D03*
X136140Y169554D03*
D16*
X132040Y180924D03*
X132040Y187274D03*
X132040Y193624D03*
X132040Y199974D03*
D15*
X136140Y211354D03*
X142240Y211354D03*
X148340Y211354D03*
D16*
X152440Y200279D03*
X152440Y193929D03*
X152440Y187579D03*
D14*
X190468Y214344D02*
X190468Y221012D01*
X197136Y221012D01*
X197136Y214344D01*
X190468Y214344D01*
X190468Y216456D02*
X197136Y216456D01*
X197136Y218568D02*
X190468Y218568D01*
X190468Y220680D02*
X197136Y220680D01*
X190468Y205772D02*
X190468Y199104D01*
X190468Y205772D02*
X197136Y205772D01*
X197136Y199104D01*
X190468Y199104D01*
X190468Y201216D02*
X197136Y201216D01*
X197136Y203328D02*
X190468Y203328D01*
X190468Y205440D02*
X197136Y205440D01*
X175482Y214344D02*
X175482Y221012D01*
X182150Y221012D01*
X182150Y214344D01*
X175482Y214344D01*
X175482Y216456D02*
X182150Y216456D01*
X182150Y218568D02*
X175482Y218568D01*
X175482Y220680D02*
X182150Y220680D01*
X175482Y205772D02*
X175482Y199104D01*
X175482Y205772D02*
X182150Y205772D01*
X182150Y199104D01*
X175482Y199104D01*
X175482Y201216D02*
X182150Y201216D01*
X182150Y203328D02*
X175482Y203328D01*
X175482Y205440D02*
X182150Y205440D01*
X182150Y175038D02*
X182150Y168370D01*
X175482Y168370D01*
X175482Y175038D01*
X182150Y175038D01*
X182150Y170482D02*
X175482Y170482D01*
X175482Y172594D02*
X182150Y172594D01*
X182150Y174706D02*
X175482Y174706D01*
X182150Y183610D02*
X182150Y190278D01*
X182150Y183610D02*
X175482Y183610D01*
X175482Y190278D01*
X182150Y190278D01*
X182150Y185722D02*
X175482Y185722D01*
X175482Y187834D02*
X182150Y187834D01*
X182150Y189946D02*
X175482Y189946D01*
X129762Y143542D02*
X129762Y136874D01*
X129762Y143542D02*
X136430Y143542D01*
X136430Y136874D01*
X129762Y136874D01*
X129762Y138986D02*
X136430Y138986D01*
X136430Y141098D02*
X129762Y141098D01*
X129762Y143210D02*
X136430Y143210D01*
X129762Y128302D02*
X129762Y121634D01*
X129762Y128302D02*
X136430Y128302D01*
X136430Y121634D01*
X129762Y121634D01*
X129762Y123746D02*
X136430Y123746D01*
X136430Y125858D02*
X129762Y125858D01*
X129762Y127970D02*
X136430Y127970D01*
D17*
X15000Y80800D03*
D18*
X15000Y106200D03*
X15000Y131600D03*
X15000Y157000D03*
X15000Y182400D03*
D14*
X153638Y147796D02*
X160306Y147796D01*
X153638Y147796D02*
X153638Y154464D01*
X160306Y154464D01*
X160306Y147796D01*
X160306Y149908D02*
X153638Y149908D01*
X153638Y152020D02*
X160306Y152020D01*
X160306Y154132D02*
X153638Y154132D01*
X168878Y147796D02*
X175546Y147796D01*
X168878Y147796D02*
X168878Y154464D01*
X175546Y154464D01*
X175546Y147796D01*
X175546Y149908D02*
X168878Y149908D01*
X168878Y152020D02*
X175546Y152020D01*
X175546Y154132D02*
X168878Y154132D01*
D19*
X93980Y15240D03*
X104140Y15240D03*
X114300Y15240D03*
X180340Y15240D03*
X190500Y15240D03*
X200660Y15240D03*
X76200Y66040D03*
X68580Y73660D03*
X111760Y114300D03*
X121920Y114300D03*
X132080Y114300D03*
X8636Y119126D03*
X189738Y88646D03*
X217424Y88646D03*
D20*
X176657Y200279D02*
X152440Y200279D01*
X176657Y200279D02*
X178816Y202438D01*
X171831Y193929D02*
X152440Y193929D01*
X171831Y193929D02*
X178816Y186944D01*
X153788Y169554D02*
X148340Y169554D01*
X153788Y169554D02*
X172212Y151130D01*
X181356Y151130D01*
X193802Y163576D01*
X193802Y184150D01*
X193802Y189738D01*
X193802Y202438D01*
X191008Y186944D02*
X178816Y186944D01*
X191008Y186944D02*
X193802Y189738D01*
X191008Y186944D02*
X193802Y184150D01*
X193802Y202438D02*
X178816Y202438D01*
X185246Y72216D02*
X185246Y52000D01*
X185246Y72216D02*
X202946Y89916D01*
D19*
X202946Y89916D03*
X202946Y107696D03*
D20*
X217170Y107696D01*
X217424Y107950D01*
D19*
X181356Y151130D03*
D20*
X47032Y124968D02*
X15000Y157000D01*
X47032Y124968D02*
X98806Y124968D01*
X104648Y124968D01*
X133096Y124968D01*
X101680Y122000D02*
X101680Y52000D01*
X101680Y122000D02*
X104648Y124968D01*
X101680Y122094D02*
X101680Y122000D01*
X101680Y122094D02*
X98806Y124968D01*
X133096Y124968D02*
X147828Y124968D01*
D19*
X147828Y124968D03*
D13*
X121680Y67324D02*
X121680Y52000D01*
X153670Y99314D02*
X162560Y99314D01*
X176022Y99314D01*
X153670Y99314D02*
X121680Y67324D01*
X85386Y35814D02*
X15000Y106200D01*
X121680Y52000D02*
X121680Y37606D01*
X119888Y35814D02*
X85386Y35814D01*
X119888Y35814D02*
X121680Y37606D01*
X205246Y39892D02*
X205246Y52000D01*
X205246Y39892D02*
X201168Y35814D01*
X123472Y35814D01*
X119888Y35814D01*
X121680Y37606D02*
X123472Y35814D01*
X132040Y187274D02*
X137592Y187274D01*
X141986Y182880D01*
D19*
X141986Y182880D03*
X162560Y99314D03*
D13*
X111680Y62712D02*
X111680Y52000D01*
X165046Y116078D02*
X176022Y116078D01*
X163549Y114581D02*
X111680Y62712D01*
X163803Y114835D02*
X165046Y116078D01*
X29464Y117136D02*
X15000Y131600D01*
X29464Y117136D02*
X29464Y97124D01*
X86964Y39624D01*
X111680Y42592D02*
X111680Y52000D01*
X108712Y39624D02*
X86964Y39624D01*
X108712Y39624D02*
X110871Y41783D01*
X111680Y42592D01*
X195246Y41736D02*
X195246Y52000D01*
X195246Y41736D02*
X195326Y41656D01*
D19*
X195326Y41656D03*
X110871Y41783D03*
D13*
X142240Y138884D02*
X142240Y169554D01*
X142240Y138884D02*
X163803Y117321D01*
X165046Y116078D01*
X163803Y117321D02*
X163803Y114835D01*
X163549Y114581D01*
X191770Y99822D02*
X217424Y99822D01*
X191770Y99822D02*
X191262Y99314D01*
X191262Y116078D02*
X217424Y116078D01*
X136140Y143252D02*
X133096Y140208D01*
X136140Y143252D02*
X136140Y169554D01*
D19*
X121920Y140208D03*
D13*
X133096Y140208D01*
M02*
