M48
;GenerationSoftware,Autodesk,EAGLE,9.2.2*%
;CreationDate,2018-12-03T08:25:13Z*%
FMAT,2
ICI,OFF
METRIC,TZ,000.000
T3C0.305
T2C0.889
T1C3.000
%
G90
M71
T1
X3000Y3000
X3000Y23320
T2
X1500Y8080
X1500Y10620
X1500Y13160
X1500Y15700
X1500Y18240
T3
X9398Y1524
X10414Y1524
X11430Y1524
X18034Y1524
X19050Y1524
X20066Y1524
X7620Y6604
X6858Y7366
X11176Y11430
X12192Y11430
X13208Y11430
X864Y11913
X18974Y8865
X21742Y8865
X20295Y8992
X20295Y10770
X18136Y15113
X14783Y12497
X14199Y18288
X16256Y9931
X19533Y4166
X11087Y4178
X12192Y14021
M30